  0
SECTION
  2
HEADER
  9
$ACADVER
  1
AC1015
  9
$ACADMAINTVER
 70
     6
  9
$DWGCODEPAGE
  3
ANSI_1252
  9
$INSBASE
 10
0.0
 20
0.0
 30
0.0
  9
$EXTMIN
 10
0.0
 20
0.0
 30
0.0
  9
$EXTMAX
 10
431.8
 20
279.4
 30
0.0
  9
$LIMMIN
 10
0.0
 20
0.0
  9
$LIMMAX
 10
431.8
 20
279.4
  9
$ORTHOMODE
 70
     0
  9
$REGENMODE
 70
     1
  9
$FILLMODE
 70
     1
  9
$QTEXTMODE
 70
     0
  9
$MIRRTEXT
 70
     1
  9
$LTSCALE
 40
1.0
  9
$ATTMODE
 70
     1
  9
$TEXTSIZE
 40
3.175
  9
$TRACEWID
 40
1.0
  9
$TEXTSTYLE
  7
Standard
  9
$CLAYER
  8
0
  9
$CELTYPE
  6
ByLayer
  9
$CECOLOR
 62
   256
  9
$CELTSCALE
 40
1.0
  9
$DISPSILH
 70
     0
  9
$DIMSCALE
 40
1.0
  9
$DIMASZ
 40
3.302
  9
$DIMEXO
 40
1.27
  9
$DIMDLI
 40
3.75
  9
$DIMRND
 40
0.0
  9
$DIMDLE
 40
0.0
  9
$DIMEXE
 40
3.175
  9
$DIMTP
 40
0.0
  9
$DIMTM
 40
0.0
  9
$DIMTXT
 40
3.175
  9
$DIMCEN
 40
2.5
  9
$DIMTSZ
 40
0.0
  9
$DIMTOL
 70
     0
  9
$DIMLIM
 70
     0
  9
$DIMTIH
 70
     1
  9
$DIMTOH
 70
     1
  9
$DIMSE1
 70
     0
  9
$DIMSE2
 70
     0
  9
$DIMTAD
 70
     0
  9
$DIMZIN
 70
     0
  9
$DIMBLK
  1

  9
$DIMASO
 70
     1
  9
$DIMSHO
 70
     1
  9
$DIMPOST
  1

  9
$DIMAPOST
  1

  9
$DIMALT
 70
     0
  9
$DIMALTD
 70
     3
  9
$DIMALTF
 40
0.0393700787
  9
$DIMLFAC
 40
1.0
  9
$DIMTOFL
 70
     1
  9
$DIMTVP
 40
0.0
  9
$DIMTIX
 70
     0
  9
$DIMSOXD
 70
     0
  9
$DIMSAH
 70
     0
  9
$DIMBLK1
  1

  9
$DIMBLK2
  1

  9
$DIMSTYLE
  2
ISO-25
  9
$DIMCLRD
 70
     0
  9
$DIMCLRE
 70
     0
  9
$DIMCLRT
 70
     0
  9
$DIMTFAC
 40
1.0
  9
$DIMGAP
 40
1.524
  9
$DIMJUST
 70
     0
  9
$DIMSD1
 70
     0
  9
$DIMSD2
 70
     0
  9
$DIMTOLJ
 70
     0
  9
$DIMTZIN
 70
     0
  9
$DIMALTZ
 70
     0
  9
$DIMALTTZ
 70
     0
  9
$DIMUPT
 70
     0
  9
$DIMDEC
 70
     2
  9
$DIMTDEC
 70
     2
  9
$DIMALTU
 70
     2
  9
$DIMALTTD
 70
     3
  9
$DIMTXSTY
  7
Standard
  9
$DIMAUNIT
 70
     0
  9
$DIMADEC
 70
     2
  9
$DIMALTRND
 40
0.0
  9
$DIMAZIN
 70
     0
  9
$DIMDSEP
 70
    44
  9
$DIMATFIT
 70
     3
  9
$DIMFRAC
 70
     0
  9
$DIMLDRBLK
  1

  9
$DIMLUNIT
 70
     2
  9
$DIMLWD
 70
    -2
  9
$DIMLWE
 70
    -2
  9
$DIMTMOVE
 70
     0
  9
$LUNITS
 70
     2
  9
$LUPREC
 70
     2
  9
$SKETCHINC
 40
1.0
  9
$FILLETRAD
 40
10.0
  9
$AUNITS
 70
     0
  9
$AUPREC
 70
     2
  9
$MENU
  1
.
  9
$ELEVATION
 40
0.0
  9
$PELEVATION
 40
0.0
  9
$THICKNESS
 40
0.0
  9
$LIMCHECK
 70
     0
  9
$CHAMFERA
 40
0.0
  9
$CHAMFERB
 40
0.0
  9
$CHAMFERC
 40
0.0
  9
$CHAMFERD
 40
0.0
  9
$SKPOLY
 70
     0
  9
$TDCREATE
 40
2458365.396996643
  9
$TDUCREATE
 40
2458365.68866331
  9
$TDUPDATE
 40
2458365.397011516
  9
$TDUUPDATE
 40
2458365.688678183
  9
$TDINDWG
 40
0.0000000116
  9
$TDUSRTIMER
 40
0.0000000116
  9
$USRTIMER
 70
     1
  9
$ANGBASE
 50
0.0
  9
$ANGDIR
 70
     0
  9
$PDMODE
 70
     0
  9
$PDSIZE
 40
-1.0
  9
$PLINEWID
 40
0.0
  9
$SPLFRAME
 70
     0
  9
$SPLINETYPE
 70
     6
  9
$SPLINESEGS
 70
     8
  9
$HANDSEED
  5
1E7
  9
$SURFTAB1
 70
     6
  9
$SURFTAB2
 70
     6
  9
$SURFTYPE
 70
     6
  9
$SURFU
 70
     6
  9
$SURFV
 70
     6
  9
$UCSBASE
  2

  9
$UCSNAME
  2

  9
$UCSORG
 10
0.0
 20
0.0
 30
0.0
  9
$UCSXDIR
 10
1.0
 20
0.0
 30
0.0
  9
$UCSYDIR
 10
0.0
 20
1.0
 30
0.0
  9
$UCSORTHOREF
  2

  9
$UCSORTHOVIEW
 70
     0
  9
$UCSORGTOP
 10
0.0
 20
0.0
 30
0.0
  9
$UCSORGBOTTOM
 10
0.0
 20
0.0
 30
0.0
  9
$UCSORGLEFT
 10
0.0
 20
0.0
 30
0.0
  9
$UCSORGRIGHT
 10
0.0
 20
0.0
 30
0.0
  9
$UCSORGFRONT
 10
0.0
 20
0.0
 30
0.0
  9
$UCSORGBACK
 10
0.0
 20
0.0
 30
0.0
  9
$PUCSBASE
  2

  9
$PUCSNAME
  2

  9
$PUCSORG
 10
0.0
 20
0.0
 30
0.0
  9
$PUCSXDIR
 10
1.0
 20
0.0
 30
0.0
  9
$PUCSYDIR
 10
0.0
 20
1.0
 30
0.0
  9
$PUCSORTHOREF
  2

  9
$PUCSORTHOVIEW
 70
     0
  9
$PUCSORGTOP
 10
0.0
 20
0.0
 30
0.0
  9
$PUCSORGBOTTOM
 10
0.0
 20
0.0
 30
0.0
  9
$PUCSORGLEFT
 10
0.0
 20
0.0
 30
0.0
  9
$PUCSORGRIGHT
 10
0.0
 20
0.0
 30
0.0
  9
$PUCSORGFRONT
 10
0.0
 20
0.0
 30
0.0
  9
$PUCSORGBACK
 10
0.0
 20
0.0
 30
0.0
  9
$USERI1
 70
     0
  9
$USERI2
 70
     0
  9
$USERI3
 70
     0
  9
$USERI4
 70
     0
  9
$USERI5
 70
     0
  9
$USERR1
 40
0.0
  9
$USERR2
 40
0.0
  9
$USERR3
 40
0.0
  9
$USERR4
 40
0.0
  9
$USERR5
 40
0.0
  9
$WORLDVIEW
 70
     1
  9
$SHADEDGE
 70
     3
  9
$SHADEDIF
 70
    70
  9
$TILEMODE
 70
     1
  9
$MAXACTVP
 70
    64
  9
$PINSBASE
 10
0.0
 20
0.0
 30
0.0
  9
$PLIMCHECK
 70
     0
  9
$PEXTMIN
 10
0.0
 20
0.0
 30
0.0
  9
$PEXTMAX
 10
431.8
 20
279.4
 30
0.0
  9
$PLIMMIN
 10
0.0
 20
0.0
  9
$PLIMMAX
 10
431.8
 20
279.4
  9
$UNITMODE
 70
     0
  9
$VISRETAIN
 70
     1
  9
$PLINEGEN
 70
     0
  9
$PSLTSCALE
 70
     1
  9
$TREEDEPTH
 70
  3020
  9
$CMLSTYLE
  2
Standard
  9
$CMLJUST
 70
     0
  9
$CMLSCALE
 40
20.0
  9
$PROXYGRAPHICS
 70
     1
  9
$MEASUREMENT
 70
     1
  9
$CELWEIGHT
370
    -1
  9
$ENDCAPS
280
     0
  9
$JOINSTYLE
280
     0
  9
$LWDISPLAY
290
     1
  9
$INSUNITS
 70
     4
  9
$HYPERLINKBASE
  1

  9
$STYLESHEET
  1

  9
$XEDIT
290
     1
  9
$CEPSNTYPE
380
     0
  9
$PSTYLEMODE
290
     1
  9
$FINGERPRINTGUID
  2
{9B187AE7-AAC2-4B74-81B1-A50434E824E5}
  9
$VERSIONGUID
  2
{FAEB1C32-E019-11D5-929B-00C0DF256EC4}
  9
$EXTNAMES
290
     1
  9
$PSVPSCALE
 40
0.0
  9
$OLESTARTUP
290
     0
  0
ENDSEC
  0
SECTION
  2
CLASSES
  0
CLASS
  1
ACDBDICTIONARYWDFLT
  2
AcDbDictionaryWithDefault
  3
ObjectDBX Classes
 90
        0
280
     0
281
     0
  0
CLASS
  1
VISUALSTYLE
  2
AcDbVisualStyle
  3
ObjectDBX Classes
 90
     4095
280
     0
281
     0
  0
CLASS
  1
MATERIAL
  2
AcDbMaterial
  3
ObjectDBX Classes
 90
     1153
280
     0
281
     0
  0
CLASS
  1
SCALE
  2
AcDbScale
  3
ObjectDBX Classes
 90
     1153
280
     0
281
     0
  0
CLASS
  1
TABLESTYLE
  2
AcDbTableStyle
  3
ObjectDBX Classes
 90
     4095
280
     0
281
     0
  0
CLASS
  1
MLEADERSTYLE
  2
AcDbMLeaderStyle
  3
ACDB_MLEADERSTYLE_CLASS
 90
     4095
280
     0
281
     0
  0
CLASS
  1
SUN
  2
AcDbSun
  3
SCENEOE
 90
     1153
280
     0
281
     0
  0
CLASS
  1
ACDBPLACEHOLDER
  2
AcDbPlaceHolder
  3
ObjectDBX Classes
 90
        0
280
     0
281
     0
  0
CLASS
  1
LAYOUT
  2
AcDbLayout
  3
ObjectDBX Classes
 90
        0
280
     0
281
     0
  0
ENDSEC
  0
SECTION
  2
TABLES
  0
TABLE
  2
VPORT
  5
8
330
0
100
AcDbSymbolTable
 70
     1
  0
VPORT
  5
29
330
8
100
AcDbSymbolTableRecord
100
AcDbViewportTableRecord
  2
*Active
 70
     0
 10
0.0
 20
0.0
 11
1.0
 21
1.0
 12
215.9
 22
139.7
 13
0.0
 23
0.0
 14
10.0
 24
10.0
 15
10.0
 25
10.0
 16
0.0
 26
0.0
 36
1.0
 17
0.0
 27
0.0
 37
0.0
 40
279.4
 41
1.5454545455
 42
50.0
 43
0.0
 44
0.0
 50
0.0
 51
0.0
 71
     0
 72
  2000
 73
     1
 74
     3
 75
     0
 76
     0
 77
     0
 78
     0
281
     0
 65
     1
110
0.0
120
0.0
130
0.0
111
1.0
121
0.0
131
0.0
112
0.0
122
1.0
132
0.0
 79
     0
146
0.0
  0
ENDTAB
  0
TABLE
  2
LTYPE
  5
5
330
0
100
AcDbSymbolTable
 70
     6
  0
LTYPE
  5
14
330
5
100
AcDbSymbolTableRecord
100
AcDbLinetypeTableRecord
  2
ByBlock
 70
     0
  3

 72
    65
 73
     0
 40
0.0
  0
LTYPE
  5
15
330
5
100
AcDbSymbolTableRecord
100
AcDbLinetypeTableRecord
  2
ByLayer
 70
     0
  3

 72
    65
 73
     0
 40
0.0
  0
LTYPE
  5
16
330
5
100
AcDbSymbolTableRecord
100
AcDbLinetypeTableRecord
  2
Continuous
 70
     0
  3
Solid line
 72
    65
 73
     0
 40
0.0
  0
LTYPE
  5
6E
330
5
100
AcDbSymbolTableRecord
100
AcDbLinetypeTableRecord
  2
HIDDEN
 70
     0
  3
Hidden __ __ __ __ __ __ __ __ __ __ __ __ __ __
 72
    65
 73
     2
 40
1.905
 49
1.27
 74
     0
 49
-0.635
 74
     0
  0
LTYPE
  5
6F
330
5
100
AcDbSymbolTableRecord
100
AcDbLinetypeTableRecord
  2
PHANTOM
 70
     0
  3
Phantom ______  __  __  ______  __  __  ______
 72
    65
 73
     6
 40
12.7
 49
6.35
 74
     0
 49
-1.27
 74
     0
 49
1.27
 74
     0
 49
-1.27
 74
     0
 49
1.27
 74
     0
 49
-1.27
 74
     0
  0
LTYPE
  5
70
330
5
100
AcDbSymbolTableRecord
100
AcDbLinetypeTableRecord
  2
CENTER
 70
     0
  3
Center ____ _ ____ _ ____ _ ____ _ ____ _ ____
 72
    65
 73
     4
 40
10.16
 49
6.35
 74
     0
 49
-1.27
 74
     0
 49
1.27
 74
     0
 49
-1.27
 74
     0
  0
LTYPE
  5
71
330
5
100
AcDbSymbolTableRecord
100
AcDbLinetypeTableRecord
  2
CENTERX2
 70
     0
  3
Center (2x) ________  __  ________  __  _____
 72
    65
 73
     4
 40
20.32
 49
12.7
 74
     0
 49
-2.54
 74
     0
 49
2.54
 74
     0
 49
-2.54
 74
     0
  0
LTYPE
  5
72
330
5
100
AcDbSymbolTableRecord
100
AcDbLinetypeTableRecord
  2
DOT2
 70
     0
  3
Dot (.5x) ........................................
 72
    65
 73
     2
 40
0.635
 49
0.0
 74
     0
 49
-0.635
 74
     0
  0
ENDTAB
  0
TABLE
  2
LAYER
  5
2
330
0
100
AcDbSymbolTable
 70
     2
  0
LAYER
  5
10
330
2
100
AcDbSymbolTableRecord
100
AcDbLayerTableRecord
  2
0
 70
     0
 62
     7
  6
Continuous
370
    -3
390
F
  0
LAYER
  5
73
330
2
100
AcDbSymbolTableRecord
100
AcDbLayerTableRecord
  2
FORMAT
 70
     0
 62
     7
  6
Continuous
370
    -3
390
F
  0
ENDTAB
  0
TABLE
  2
STYLE
  5
3
330
0
100
AcDbSymbolTable
 70
     2
  0
STYLE
  5
11
330
3
100
AcDbSymbolTableRecord
100
AcDbTextStyleTableRecord
  2
Standard
 70
     0
 40
0.0
 41
1.0
 50
0.0
 71
     0
 42
3.175
  3
txt
  4

  0
STYLE
  5
77
330
3
100
AcDbSymbolTableRecord
100
AcDbTextStyleTableRecord
  2
SLDTEXTSTYLE0
 70
     0
 40
0.0
 41
0.75
 50
0.0
 71
     0
 42
3.175
  3
TXT
  4

  0
ENDTAB
  0
TABLE
  2
VIEW
  5
6
330
0
100
AcDbSymbolTable
 70
     0
  0
ENDTAB
  0
TABLE
  2
UCS
  5
7
330
0
100
AcDbSymbolTable
 70
     0
  0
ENDTAB
  0
TABLE
  2
APPID
  5
9
330
0
100
AcDbSymbolTable
 70
     1
  0
APPID
  5
12
330
9
100
AcDbSymbolTableRecord
100
AcDbRegAppTableRecord
  2
ACAD
 70
     0
  0
ENDTAB
  0
TABLE
  2
DIMSTYLE
  5
A
330
0
100
AcDbSymbolTable
 70
     1
100
AcDbDimStyleTable
  0
DIMSTYLE
105
27
330
A
100
AcDbSymbolTableRecord
100
AcDbDimStyleTableRecord
  2
ISO-25
 70
     0
 41
2.5
 42
0.625
 43
3.75
 44
1.25
 73
     0
 74
     0
 77
     1
 78
     8
140
2.5
141
2.5
143
0.0393700787
147
0.625
171
     3
172
     1
178
     0
271
     2
272
     2
274
     3
278
    44
283
     0
284
     8
340
11
  0
ENDTAB
  0
TABLE
  2
BLOCK_RECORD
  5
1
330
0
100
AcDbSymbolTable
 70
     8
  0
BLOCK_RECORD
  5
1F
330
1
100
AcDbSymbolTableRecord
100
AcDbBlockTableRecord
  2
*Model_Space
340
22
  0
BLOCK_RECORD
  5
1B
330
1
100
AcDbSymbolTableRecord
100
AcDbBlockTableRecord
  2
*Paper_Space
340
1E
  0
BLOCK_RECORD
  5
23
330
1
100
AcDbSymbolTableRecord
100
AcDbBlockTableRecord
  2
*Paper_Space0
340
26
  0
BLOCK_RECORD
  5
74
330
1
100
AcDbSymbolTableRecord
100
AcDbBlockTableRecord
  2
SW_NOTE_0
340
0
102
{BLKREFS
331
7C
102
}
  0
BLOCK_RECORD
  5
91
330
1
100
AcDbSymbolTableRecord
100
AcDbBlockTableRecord
  2
SW_NOTE_1
340
0
102
{BLKREFS
331
98
102
}
  0
BLOCK_RECORD
  5
D5
330
1
100
AcDbSymbolTableRecord
100
AcDbBlockTableRecord
  2
SW_NOTE_2
340
0
102
{BLKREFS
331
DC
102
}
  0
BLOCK_RECORD
  5
103
330
1
100
AcDbSymbolTableRecord
100
AcDbBlockTableRecord
  2
*Paper_Space4
340
104
  0
BLOCK_RECORD
  5
107
330
1
100
AcDbSymbolTableRecord
100
AcDbBlockTableRecord
  2
SW_NOTE_3
340
0
102
{BLKREFS
331
10F
102
}
  0
BLOCK_RECORD
  5
1D3
330
1
100
AcDbSymbolTableRecord
100
AcDbBlockTableRecord
  2
*Paper_Space6
340
1D4
  0
BLOCK_RECORD
  5
1D7
330
1
100
AcDbSymbolTableRecord
100
AcDbBlockTableRecord
  2
SW_NOTE_4
340
0
102
{BLKREFS
331
1DE
102
}
  0
ENDTAB
  0
ENDSEC
  0
SECTION
  2
BLOCKS
  0
BLOCK
  5
20
330
1F
100
AcDbEntity
  8
0
100
AcDbBlockBegin
  2
*Model_Space
 70
     0
 10
0.0
 20
0.0
 30
0.0
  3
*Model_Space
  1

  0
ENDBLK
  5
21
330
1F
100
AcDbEntity
  8
0
100
AcDbBlockEnd
  0
BLOCK
  5
1C
330
1B
100
AcDbEntity
 67
     1
  8
0
100
AcDbBlockBegin
  2
*Paper_Space
 70
     0
 10
0.0
 20
0.0
 30
0.0
  3
*Paper_Space
  1

  0
ENDBLK
  5
1D
330
1B
100
AcDbEntity
 67
     1
  8
0
100
AcDbBlockEnd
  0
BLOCK
  5
24
330
23
100
AcDbEntity
  8
0
100
AcDbBlockBegin
  2
*Paper_Space0
 70
     0
 10
0.0
 20
0.0
 30
0.0
  3
*Paper_Space0
  1

  0
INSERT
  5
DC
330
23
100
AcDbEntity
  8
0
  6
Continuous
 62
     7
370
     0
100
AcDbBlockReference
  2
SW_NOTE_2
 10
186.2792238919
 20
264.3962505599
 30
0.0
  0
CIRCLE
  5
DD
330
23
100
AcDbEntity
  8
0
  6
Continuous
 62
     7
370
    25
100
AcDbCircle
 10
17.8260663079
 20
248.1551921541
 30
0.0
 40
3.124999999999972
  0
CIRCLE
  5
DE
330
23
100
AcDbEntity
  8
0
  6
Continuous
 62
     7
370
    25
100
AcDbCircle
 10
17.8260663079
 20
193.1551921541
 30
0.0
 40
3.125
  0
CIRCLE
  5
DF
330
23
100
AcDbEntity
  8
0
  6
Continuous
 62
     7
370
    25
100
AcDbCircle
 10
157.8260663079
 20
193.1551921541
 30
0.0
 40
3.125000000000028
  0
CIRCLE
  5
E0
330
23
100
AcDbEntity
  8
0
  6
Continuous
 62
     7
370
    25
100
AcDbCircle
 10
157.8260663079
 20
248.1551921541
 30
0.0
 40
3.125000000000028
  0
CIRCLE
  5
E1
330
23
100
AcDbEntity
  8
0
  6
Continuous
 62
     7
370
    25
100
AcDbCircle
 10
28.3260663079
 20
265.6551921541
 30
0.0
 40
1.25
  0
CIRCLE
  5
E2
330
23
100
AcDbEntity
  8
0
  6
Continuous
 62
     7
370
    25
100
AcDbCircle
 10
28.3260663079
 20
175.6551921541
 30
0.0
 40
1.25
  0
CIRCLE
  5
E3
330
23
100
AcDbEntity
  8
0
  6
Continuous
 62
     7
370
    25
100
AcDbCircle
 10
147.3260663079
 20
265.6551921541
 30
0.0
 40
1.249999999999943
  0
CIRCLE
  5
E4
330
23
100
AcDbEntity
  8
0
  6
Continuous
 62
     7
370
    25
100
AcDbCircle
 10
147.3260663079
 20
175.6551921541
 30
0.0
 40
1.249999999999972
  0
CIRCLE
  5
E5
330
23
100
AcDbEntity
  8
0
  6
Continuous
 62
     7
370
    25
100
AcDbCircle
 10
127.8260663079
 20
253.1551921541
 30
0.0
 40
1.0
  0
ARC
  5
E6
330
23
100
AcDbEntity
  8
0
  6
Continuous
 62
     7
370
    25
100
AcDbCircle
 10
134.8260663079
 20
258.6551921541
 30
0.0
 40
3.0
100
AcDbArc
 50
270.0
 51
0.0
  0
LINE
  5
E7
330
23
100
AcDbEntity
  8
0
  6
Continuous
 62
     7
370
    25
100
AcDbLine
 10
137.826067053
 20
258.6551909322
 30
0.0
 11
137.826067053
 21
270.6551928992
 31
0.0
  0
LINE
  5
E8
330
23
100
AcDbEntity
  8
0
  6
Continuous
 62
     7
370
    25
100
AcDbLine
 10
137.826067053
 20
170.6551914091
 30
0.0
 11
137.826067053
 21
182.655193376
 31
0.0
  0
ARC
  5
E9
330
23
100
AcDbEntity
  8
0
  6
Continuous
 62
     7
370
    25
100
AcDbCircle
 10
134.8260663079
 20
182.6551921541
 30
0.0
 40
3.0
100
AcDbArc
 50
0.0
 51
90.0
  0
LINE
  5
EA
330
23
100
AcDbEntity
  8
0
  6
Continuous
 62
     7
370
    25
100
AcDbLine
 10
134.8260646986
 20
185.6551920051
 30
0.0
 11
40.8260679173
 21
185.6551920051
 31
0.0
  0
ARC
  5
EB
330
23
100
AcDbEntity
  8
0
  6
Continuous
 62
     7
370
    25
100
AcDbCircle
 10
40.8260663079
 20
182.6551921541
 30
0.0
 40
3.0
100
AcDbArc
 50
90.0
 51
180.0
  0
LINE
  5
EC
330
23
100
AcDbEntity
  8
0
  6
Continuous
 62
     7
370
    25
100
AcDbLine
 10
37.8260655629
 20
182.655193376
 30
0.0
 11
37.8260655629
 21
170.6551914091
 31
0.0
  0
ARC
  5
ED
330
23
100
AcDbEntity
  8
0
  6
Continuous
 62
     7
370
    25
100
AcDbCircle
 10
11.3260663079
 20
210.6551921541
 30
0.0
 40
10.0
100
AcDbArc
 50
270.0
 51
0.0
  0
LINE
  5
EE
330
23
100
AcDbEntity
  8
0
  6
Continuous
 62
     7
370
    25
100
AcDbLine
 10
21.3260656523
 20
210.6551923777
 30
0.0
 11
21.3260656523
 21
230.6551919306
 31
0.0
  0
ARC
  5
EF
330
23
100
AcDbEntity
  8
0
  6
Continuous
 62
     7
370
    25
100
AcDbCircle
 10
11.3260663079
 20
230.6551921541
 30
0.0
 40
10.0
100
AcDbArc
 50
0.0
 51
90.0
  0
LINE
  5
F0
330
23
100
AcDbEntity
  8
0
  6
Continuous
 62
     7
370
    25
100
AcDbLine
 10
37.8260655629
 20
270.6551928992
 30
0.0
 11
37.8260655629
 21
258.6551909322
 31
0.0
  0
ARC
  5
F1
330
23
100
AcDbEntity
  8
0
  6
Continuous
 62
     7
370
    25
100
AcDbCircle
 10
40.8260663079
 20
258.6551921541
 30
0.0
 40
3.0
100
AcDbArc
 50
180.0
 51
270.0
  0
ARC
  5
F2
330
23
100
AcDbEntity
  8
0
  6
Continuous
 62
     7
370
    25
100
AcDbCircle
 10
49.8260663079
 20
252.6551921541
 30
0.0
 40
3.000000000000028
100
AcDbArc
 50
0.0
 51
90.0
  0
LINE
  5
F3
330
23
100
AcDbEntity
  8
0
  6
Continuous
 62
     7
370
    25
100
AcDbLine
 10
52.8260661589
 20
252.6551936741
 30
0.0
 11
52.8260661589
 21
248.6551930184
 31
0.0
  0
ARC
  5
F4
330
23
100
AcDbEntity
  8
0
  6
Continuous
 62
     7
370
    25
100
AcDbCircle
 10
55.8260663079
 20
248.6551921541
 30
0.0
 40
3.0
100
AcDbArc
 50
180.0
 51
270.0
  0
LINE
  5
F5
330
23
100
AcDbEntity
  8
0
  6
Continuous
 62
     7
370
    25
100
AcDbLine
 10
55.826064788
 20
245.6551925267
 30
0.0
 11
119.8260678279
 21
245.6551925267
 31
0.0
  0
ARC
  5
F6
330
23
100
AcDbEntity
  8
0
  6
Continuous
 62
     7
370
    25
100
AcDbCircle
 10
119.8260663079
 20
248.6551921541
 30
0.0
 40
3.0
100
AcDbArc
 50
270.0
 51
0.0
  0
LINE
  5
F7
330
23
100
AcDbEntity
  8
0
  6
Continuous
 62
     7
370
    25
100
AcDbLine
 10
122.8260664569
 20
248.6551930184
 30
0.0
 11
122.8260664569
 21
252.6551936741
 31
0.0
  0
ARC
  5
F8
330
23
100
AcDbEntity
  8
0
  6
Continuous
 62
     7
370
    25
100
AcDbCircle
 10
125.8260663079
 20
252.6551921541
 30
0.0
 40
3.000000000000028
100
AcDbArc
 50
90.0
 51
180.0
  0
LINE
  5
F9
330
23
100
AcDbEntity
  8
0
  6
Continuous
 62
     7
370
    25
100
AcDbLine
 10
125.826065086
 20
255.6551923032
 30
0.0
 11
134.8260646986
 21
255.6551923032
 31
0.0
  0
CIRCLE
  5
FA
330
23
100
AcDbEntity
  8
0
  6
Continuous
 62
     7
370
    25
100
AcDbCircle
 10
137.3260663079
 20
253.1551921541
 30
0.0
 40
1.0
  0
LINE
  5
FB
330
23
100
AcDbEntity
  8
0
  6
Continuous
 62
     7
370
    25
100
AcDbLine
 10
164.3260648774
 20
270.6551928992
 30
0.0
 11
137.826067053
 21
270.6551928992
 31
0.0
  0
LINE
  5
FC
330
23
100
AcDbEntity
  8
0
  6
Continuous
 62
     7
370
    25
100
AcDbLine
 10
164.3260648774
 20
170.6551914091
 30
0.0
 11
164.3260648774
 21
270.6551928992
 31
0.0
  0
LINE
  5
FD
330
23
100
AcDbEntity
  8
0
  6
Continuous
 62
     7
370
    25
100
AcDbLine
 10
137.826067053
 20
170.6551914091
 30
0.0
 11
164.3260648774
 21
170.6551914091
 31
0.0
  0
LINE
  5
FE
330
23
100
AcDbEntity
  8
0
  6
Continuous
 62
     7
370
    25
100
AcDbLine
 10
11.3260677384
 20
200.6551926012
 30
0.0
 11
11.3260677384
 21
170.6551914091
 31
0.0
  0
LINE
  5
FF
330
23
100
AcDbEntity
  8
0
  6
Continuous
 62
     7
370
    25
100
AcDbLine
 10
37.8260655629
 20
270.6551928992
 30
0.0
 11
11.3260677384
 21
270.6551928992
 31
0.0
  0
LINE
  5
100
330
23
100
AcDbEntity
  8
0
  6
Continuous
 62
     7
370
    25
100
AcDbLine
 10
11.3260677384
 20
170.6551914091
 30
0.0
 11
37.8260655629
 21
170.6551914091
 31
0.0
  0
LINE
  5
101
330
23
100
AcDbEntity
  8
0
  6
Continuous
 62
     7
370
    25
100
AcDbLine
 10
11.3260677384
 20
270.6551928992
 30
0.0
 11
11.3260677384
 21
240.6551917071
 31
0.0
  0
LINE
  5
102
330
23
100
AcDbEntity
  8
0
  6
Continuous
 62
     7
370
    25
100
AcDbLine
 10
40.8260679173
 20
255.6551923032
 30
0.0
 11
49.8260675298
 21
255.6551923032
 31
0.0
  0
ENDBLK
  5
25
330
23
100
AcDbEntity
  8
0
100
AcDbBlockEnd
  0
BLOCK
  5
75
330
74
100
AcDbEntity
  8
0
100
AcDbBlockBegin
  2
SW_NOTE_0
 70
     0
 10
0.0
 20
0.0
 30
0.0
  3
SW_NOTE_0
  1

  0
MTEXT
  5
78
330
74
100
AcDbEntity
  8
0
  6
Continuous
 62
     0
370
     0
100
AcDbMText
 10
0.0
 20
4.0927900738
 30
0.0
 40
3.175
 41
0.0
 71
     1
 72
     1
  1
SCALE 1:1
  7
SLDTEXTSTYLE0
 73
     1
 44
1.0
  0
MTEXT
  5
79
330
74
100
AcDbEntity
  8
0
  6
Continuous
 62
     0
370
     0
100
AcDbMText
 10
0.0
 20
-0.0822098189
 30
0.0
 40
3.175
 41
0.0
 71
     1
 72
     1
  1
DIMENSIONS IN MM
  7
SLDTEXTSTYLE0
 73
     1
 44
1.0
  0
MTEXT
  5
7A
330
74
100
AcDbEntity
  8
0
  6
Continuous
 62
     0
370
     0
100
AcDbMText
 10
0.0
 20
-4.2572097116
 30
0.0
 40
3.175
 41
0.0
 71
     1
 72
     1
  1
PART MATERIAL: 3/8" ALUMINUM SHEET
  7
SLDTEXTSTYLE0
 73
     1
 44
1.0
  0
MTEXT
  5
7B
330
74
100
AcDbEntity
  8
0
  6
Continuous
 62
     0
370
     0
100
AcDbMText
 10
0.0
 20
-12.6072094971
 30
0.0
 40
3.175
 41
0.0
 71
     1
 72
     1
  1
VERSION 1.0 - 10/13/2016
  7
SLDTEXTSTYLE0
 73
     1
 44
1.0
  0
ENDBLK
  5
76
330
74
100
AcDbEntity
  8
0
100
AcDbBlockEnd
  0
BLOCK
  5
92
330
91
100
AcDbEntity
  8
0
100
AcDbBlockBegin
  2
SW_NOTE_1
 70
     0
 10
0.0
 20
0.0
 30
0.0
  3
SW_NOTE_1
  1

  0
MTEXT
  5
94
330
91
100
AcDbEntity
  8
0
  6
Continuous
 62
     0
370
     0
100
AcDbMText
 10
0.0
 20
4.0927900738
 30
0.0
 40
3.175
 41
0.0
 71
     1
 72
     1
  1
SCALE 1:1
  7
SLDTEXTSTYLE0
 73
     1
 44
1.0
  0
MTEXT
  5
95
330
91
100
AcDbEntity
  8
0
  6
Continuous
 62
     0
370
     0
100
AcDbMText
 10
0.0
 20
-0.0822098189
 30
0.0
 40
3.175
 41
0.0
 71
     1
 72
     1
  1
DIMENSIONS IN MM
  7
SLDTEXTSTYLE0
 73
     1
 44
1.0
  0
MTEXT
  5
96
330
91
100
AcDbEntity
  8
0
  6
Continuous
 62
     0
370
     0
100
AcDbMText
 10
0.0
 20
-4.2572097116
 30
0.0
 40
3.175
 41
0.0
 71
     1
 72
     1
  1
PART MATERIAL: 1/4" ALUMINUM SHEET
  7
SLDTEXTSTYLE0
 73
     1
 44
1.0
  0
MTEXT
  5
97
330
91
100
AcDbEntity
  8
0
  6
Continuous
 62
     0
370
     0
100
AcDbMText
 10
0.0
 20
-12.6072094971
 30
0.0
 40
3.175
 41
0.0
 71
     1
 72
     1
  1
VERSION 1.0 - 10/13/2016
  7
SLDTEXTSTYLE0
 73
     1
 44
1.0
  0
ENDBLK
  5
93
330
91
100
AcDbEntity
  8
0
100
AcDbBlockEnd
  0
BLOCK
  5
D6
330
D5
100
AcDbEntity
  8
0
100
AcDbBlockBegin
  2
SW_NOTE_2
 70
     0
 10
0.0
 20
0.0
 30
0.0
  3
SW_NOTE_2
  1

  0
MTEXT
  5
D8
330
D5
100
AcDbEntity
  8
0
  6
Continuous
 62
     0
370
     0
100
AcDbMText
 10
0.0
 20
4.0927900738
 30
0.0
 40
3.175
 41
0.0
 71
     1
 72
     1
  1
SCALE 1:1
  7
SLDTEXTSTYLE0
 73
     1
 44
1.0
  0
MTEXT
  5
D9
330
D5
100
AcDbEntity
  8
0
  6
Continuous
 62
     0
370
     0
100
AcDbMText
 10
0.0
 20
-0.0822098189
 30
0.0
 40
3.175
 41
0.0
 71
     1
 72
     1
  1
DIMENSIONS IN MM
  7
SLDTEXTSTYLE0
 73
     1
 44
1.0
  0
MTEXT
  5
DA
330
D5
100
AcDbEntity
  8
0
  6
Continuous
 62
     0
370
     0
100
AcDbMText
 10
0.0
 20
-4.2572097116
 30
0.0
 40
3.175
 41
0.0
 71
     1
 72
     1
  1
PART MATERIAL: 3/16" ALUMINUM SHEET
  7
SLDTEXTSTYLE0
 73
     1
 44
1.0
  0
MTEXT
  5
DB
330
D5
100
AcDbEntity
  8
0
  6
Continuous
 62
     0
370
     0
100
AcDbMText
 10
0.0
 20
-12.6072094971
 30
0.0
 40
3.175
 41
0.0
 71
     1
 72
     1
  1
VERSION 1.0 - 10/13/2016
  7
SLDTEXTSTYLE0
 73
     1
 44
1.0
  0
ENDBLK
  5
D7
330
D5
100
AcDbEntity
  8
0
100
AcDbBlockEnd
  0
BLOCK
  5
105
330
103
100
AcDbEntity
  8
0
100
AcDbBlockBegin
  2
*Paper_Space4
 70
     0
 10
0.0
 20
0.0
 30
0.0
  3
*Paper_Space4
  1

  0
INSERT
  5
10F
330
103
100
AcDbEntity
  8
0
  6
Continuous
 62
     7
370
     0
100
AcDbBlockReference
  2
SW_NOTE_3
 10
298.1760009721
 20
124.3055453711
 30
0.0
  0
CIRCLE
  5
110
330
103
100
AcDbEntity
  8
0
  6
Continuous
 62
     7
370
    25
100
AcDbCircle
 10
14.2124312172
 20
179.5355995422
 30
0.0
 40
3.25
  0
CIRCLE
  5
111
330
103
100
AcDbEntity
  8
0
  6
Continuous
 62
     7
370
    25
100
AcDbCircle
 10
154.2124312172
 20
266.5355995422
 30
0.0
 40
3.250000000000057
  0
CIRCLE
  5
112
330
103
100
AcDbEntity
  8
0
  6
Continuous
 62
     7
370
    25
100
AcDbCircle
 10
14.2124312172
 20
266.5355995422
 30
0.0
 40
3.250000000000057
  0
CIRCLE
  5
113
330
103
100
AcDbEntity
  8
0
  6
Continuous
 62
     7
370
    25
100
AcDbCircle
 10
154.2124312172
 20
179.5355995422
 30
0.0
 40
3.25
  0
CIRCLE
  5
114
330
103
100
AcDbEntity
  8
0
  6
Continuous
 62
     7
370
    25
100
AcDbCircle
 10
69.4524312172
 20
245.0355995422
 30
0.0
 40
1.25
  0
CIRCLE
  5
115
330
103
100
AcDbEntity
  8
0
  6
Continuous
 62
     7
370
    25
100
AcDbCircle
 10
116.9724312172
 20
233.0355995422
 30
0.0
 40
1.25
  0
CIRCLE
  5
116
330
103
100
AcDbEntity
  8
0
  6
Continuous
 62
     7
370
    25
100
AcDbCircle
 10
98.9724312172
 20
245.0355995422
 30
0.0
 40
1.250000000000057
  0
CIRCLE
  5
117
330
103
100
AcDbEntity
  8
0
  6
Continuous
 62
     7
370
    25
100
AcDbCircle
 10
98.9724312172
 20
201.0355995422
 30
0.0
 40
1.25
  0
CIRCLE
  5
118
330
103
100
AcDbEntity
  8
0
  6
Continuous
 62
     7
370
    25
100
AcDbCircle
 10
116.9724312172
 20
201.0355995422
 30
0.0
 40
1.25
  0
CIRCLE
  5
119
330
103
100
AcDbEntity
  8
0
  6
Continuous
 62
     7
370
    25
100
AcDbCircle
 10
51.4524312172
 20
201.0355995422
 30
0.0
 40
1.25
  0
CIRCLE
  5
11A
330
103
100
AcDbEntity
  8
0
  6
Continuous
 62
     7
370
    25
100
AcDbCircle
 10
51.4524312172
 20
233.0355995422
 30
0.0
 40
1.25
  0
CIRCLE
  5
11B
330
103
100
AcDbEntity
  8
0
  6
Continuous
 62
     7
370
    25
100
AcDbCircle
 10
69.4524312172
 20
201.0355995422
 30
0.0
 40
1.25
  0
CIRCLE
  5
11C
330
103
100
AcDbEntity
  8
0
  6
Continuous
 62
     7
370
    25
100
AcDbCircle
 10
89.2124312172
 20
213.0355995422
 30
0.0
 40
1.249999999999972
  0
CIRCLE
  5
11D
330
103
100
AcDbEntity
  8
0
  6
Continuous
 62
     7
370
    25
100
AcDbCircle
 10
79.2124312172
 20
213.0355995422
 30
0.0
 40
1.249999999999972
  0
ARC
  5
11E
330
103
100
AcDbEntity
  8
0
  6
Continuous
 62
     7
370
    25
100
AcDbCircle
 10
29.2124312172
 20
178.0355995422
 30
0.0
 40
5.0
100
AcDbArc
 50
270.0
 51
0.0
  0
LINE
  5
11F
330
103
100
AcDbEntity
  8
0
  6
Continuous
 62
     7
370
    25
100
AcDbLine
 10
7.7124326477
 20
173.0355987971
 30
0.0
 11
29.2124315152
 21
173.0355987971
 31
0.0
  0
LINE
  5
120
330
103
100
AcDbEntity
  8
0
  6
Continuous
 62
     7
370
    25
100
AcDbLine
 10
7.7124326477
 20
188.0355993932
 30
0.0
 11
7.7124326477
 21
173.0355987971
 31
0.0
  0
LINE
  5
121
330
103
100
AcDbEntity
  8
0
  6
Continuous
 62
     7
370
    25
100
AcDbLine
 10
7.7124326477
 20
188.0355993932
 30
0.0
 11
15.6413628707
 21
188.0355993932
 31
0.0
  0
ARC
  5
122
330
103
100
AcDbEntity
  8
0
  6
Continuous
 62
     7
370
    25
100
AcDbCircle
 10
15.6413634053
 20
193.0355995422
 30
0.0
 40
5.0
100
AcDbArc
 50
270.0
 51
315.0
  0
LINE
  5
123
330
103
100
AcDbEntity
  8
0
  6
Continuous
 62
     7
370
    25
100
AcDbLine
 10
19.1768943319
 20
189.5000668889
 30
0.0
 11
37.7479656587
 21
208.071133559
 31
0.0
  0
ARC
  5
124
330
103
100
AcDbEntity
  8
0
  6
Continuous
 62
     7
370
    25
100
AcDbCircle
 10
34.2124312172
 20
211.6066673541
 30
0.0
 40
5.0
100
AcDbArc
 50
315.0
 51
0.0
  0
LINE
  5
125
330
103
100
AcDbEntity
  8
0
  6
Continuous
 62
     7
370
    25
100
AcDbLine
 10
39.2124294291
 20
211.6066678142
 30
0.0
 11
39.2124294291
 21
234.4645312702
 31
0.0
  0
ARC
  5
126
330
103
100
AcDbEntity
  8
0
  6
Continuous
 62
     7
370
    25
100
AcDbCircle
 10
34.2124312172
 20
234.4645317303
 30
0.0
 40
5.0
100
AcDbArc
 50
0.0
 51
45.0
  0
LINE
  5
127
330
103
100
AcDbEntity
  8
0
  6
Continuous
 62
     7
370
    25
100
AcDbLine
 10
37.7479656587
 20
238.0000655254
 30
0.0
 11
19.1768943319
 21
256.5711321955
 31
0.0
  0
ARC
  5
128
330
103
100
AcDbEntity
  8
0
  6
Continuous
 62
     7
370
    25
100
AcDbCircle
 10
15.6413634053
 20
253.0355995422
 30
0.0
 40
5.0
100
AcDbArc
 50
45.0
 51
90.0
  0
LINE
  5
129
330
103
100
AcDbEntity
  8
0
  6
Continuous
 62
     7
370
    25
100
AcDbLine
 10
15.6413628707
 20
258.0355996912
 30
0.0
 11
7.7124326477
 21
258.0355996912
 31
0.0
  0
ARC
  5
12A
330
103
100
AcDbEntity
  8
0
  6
Continuous
 62
     7
370
    25
100
AcDbCircle
 10
29.2124312172
 20
268.0355995422
 30
0.0
 40
5.0
100
AcDbArc
 50
0.0
 51
90.0
  0
ARC
  5
12B
330
103
100
AcDbEntity
  8
0
  6
Continuous
 62
     7
370
    25
100
AcDbCircle
 10
41.7124312172
 20
268.0355995422
 30
0.0
 40
7.500000000000057
100
AcDbArc
 50
180.0
 51
270.0
  0
LINE
  5
12C
330
103
100
AcDbEntity
  8
0
  6
Continuous
 62
     7
370
    25
100
AcDbLine
 10
41.7124307702
 20
260.5356010323
 30
0.0
 11
126.7124316642
 21
260.5356010323
 31
0.0
  0
ARC
  5
12D
330
103
100
AcDbEntity
  8
0
  6
Continuous
 62
     7
370
    25
100
AcDbCircle
 10
139.2124312172
 20
268.0355995422
 30
0.0
 40
5.0
100
AcDbArc
 50
90.0
 51
180.0
  0
LINE
  5
12E
330
103
100
AcDbEntity
  8
0
  6
Continuous
 62
     7
370
    25
100
AcDbLine
 10
160.7124297867
 20
273.0356002873
 30
0.0
 11
139.2124309192
 21
273.0356002873
 31
0.0
  0
LINE
  5
12F
330
103
100
AcDbEntity
  8
0
  6
Continuous
 62
     7
370
    25
100
AcDbLine
 10
160.7124297867
 20
258.0355996912
 30
0.0
 11
160.7124297867
 21
273.0356002873
 31
0.0
  0
LINE
  5
130
330
103
100
AcDbEntity
  8
0
  6
Continuous
 62
     7
370
    25
100
AcDbLine
 10
160.7124297867
 20
258.0355996912
 30
0.0
 11
152.7834995637
 21
258.0355996912
 31
0.0
  0
ARC
  5
131
330
103
100
AcDbEntity
  8
0
  6
Continuous
 62
     7
370
    25
100
AcDbCircle
 10
152.7834990291
 20
253.0355995422
 30
0.0
 40
5.0
100
AcDbArc
 50
90.0
 51
135.0
  0
LINE
  5
132
330
103
100
AcDbEntity
  8
0
  6
Continuous
 62
     7
370
    25
100
AcDbLine
 10
149.2479681025
 20
256.5711321955
 30
0.0
 11
130.6768967757
 21
238.0000655254
 31
0.0
  0
ARC
  5
133
330
103
100
AcDbEntity
  8
0
  6
Continuous
 62
     7
370
    25
100
AcDbCircle
 10
134.2124312172
 20
234.4645317303
 30
0.0
 40
4.99999999999998
100
AcDbArc
 50
135.0
 51
180.0
  0
LINE
  5
134
330
103
100
AcDbEntity
  8
0
  6
Continuous
 62
     7
370
    25
100
AcDbLine
 10
129.2124330053
 20
234.4645312702
 30
0.0
 11
129.2124330053
 21
211.6066678142
 31
0.0
  0
ARC
  5
135
330
103
100
AcDbEntity
  8
0
  6
Continuous
 62
     7
370
    25
100
AcDbCircle
 10
134.2124312172
 20
211.6066673541
 30
0.0
 40
4.999999999999972
100
AcDbArc
 50
180.0
 51
225.0
  0
LINE
  5
136
330
103
100
AcDbEntity
  8
0
  6
Continuous
 62
     7
370
    25
100
AcDbLine
 10
130.6768967757
 20
208.071133559
 30
0.0
 11
149.2479681025
 21
189.5000668889
 31
0.0
  0
ARC
  5
137
330
103
100
AcDbEntity
  8
0
  6
Continuous
 62
     7
370
    25
100
AcDbCircle
 10
152.7834990291
 20
193.0355995422
 30
0.0
 40
5.00000000000002
100
AcDbArc
 50
225.0
 51
270.0
  0
LINE
  5
138
330
103
100
AcDbEntity
  8
0
  6
Continuous
 62
     7
370
    25
100
AcDbLine
 10
152.7834995637
 20
188.0355993932
 30
0.0
 11
160.7124297867
 21
188.0355993932
 31
0.0
  0
ARC
  5
139
330
103
100
AcDbEntity
  8
0
  6
Continuous
 62
     7
370
    25
100
AcDbCircle
 10
139.2124312172
 20
178.0355995422
 30
0.0
 40
5.0
100
AcDbArc
 50
180.0
 51
270.0
  0
ARC
  5
13A
330
103
100
AcDbEntity
  8
0
  6
Continuous
 62
     7
370
    25
100
AcDbCircle
 10
126.7124312172
 20
178.0355995422
 30
0.0
 40
7.500000000000028
100
AcDbArc
 50
0.0
 51
90.0
  0
LINE
  5
13B
330
103
100
AcDbEntity
  8
0
  6
Continuous
 62
     7
370
    25
100
AcDbLine
 10
126.7124316642
 20
185.5355980521
 30
0.0
 11
41.7124307702
 21
185.5355980521
 31
0.0
  0
LINE
  5
13C
330
103
100
AcDbEntity
  8
0
  6
Continuous
 62
     7
370
    25
100
AcDbLine
 10
7.7124326477
 20
273.0356002873
 30
0.0
 11
7.7124326477
 21
258.0355996912
 31
0.0
  0
LINE
  5
13D
330
103
100
AcDbEntity
  8
0
  6
Continuous
 62
     7
370
    25
100
AcDbLine
 10
160.7124297867
 20
173.0355987971
 30
0.0
 11
160.7124297867
 21
188.0355993932
 31
0.0
  0
LINE
  5
13E
330
103
100
AcDbEntity
  8
0
  6
Continuous
 62
     7
370
    25
100
AcDbLine
 10
29.2124315152
 20
273.0356002873
 30
0.0
 11
7.7124326477
 21
273.0356002873
 31
0.0
  0
LINE
  5
13F
330
103
100
AcDbEntity
  8
0
  6
Continuous
 62
     7
370
    25
100
AcDbLine
 10
139.2124309192
 20
173.0355987971
 30
0.0
 11
160.7124297867
 21
173.0355987971
 31
0.0
  0
ARC
  5
140
330
103
100
AcDbEntity
  8
0
  6
Continuous
 62
     7
370
    25
100
AcDbCircle
 10
126.7124312172
 20
268.0355995422
 30
0.0
 40
7.5
100
AcDbArc
 50
270.0
 51
0.0
  0
ARC
  5
141
330
103
100
AcDbEntity
  8
0
  6
Continuous
 62
     7
370
    25
100
AcDbCircle
 10
41.7124312172
 20
178.0355995422
 30
0.0
 40
7.5
100
AcDbArc
 50
90.0
 51
180.0
  0
CIRCLE
  5
142
330
103
100
AcDbEntity
  8
0
  6
Continuous
 62
     7
370
    25
100
AcDbCircle
 10
23.4911777954
 20
24.8059926876
 30
0.0
 40
1.250000000000007
  0
CIRCLE
  5
143
330
103
100
AcDbEntity
  8
0
  6
Continuous
 62
     7
370
    25
100
AcDbCircle
 10
192.4911777954
 20
143.8059926876
 30
0.0
 40
1.25
  0
CIRCLE
  5
144
330
103
100
AcDbEntity
  8
0
  6
Continuous
 62
     7
370
    25
100
AcDbCircle
 10
23.4911777954
 20
143.8059926876
 30
0.0
 40
1.25
  0
CIRCLE
  5
145
330
103
100
AcDbEntity
  8
0
  6
Continuous
 62
     7
370
    25
100
AcDbCircle
 10
192.4911777954
 20
24.8059926876
 30
0.0
 40
1.250000000000004
  0
CIRCLE
  5
146
330
103
100
AcDbEntity
  8
0
  6
Continuous
 62
     7
370
    25
100
AcDbCircle
 10
19.4911777954
 20
74.0559926876
 30
0.0
 40
1.000000000000014
  0
CIRCLE
  5
147
330
103
100
AcDbEntity
  8
0
  6
Continuous
 62
     7
370
    25
100
AcDbCircle
 10
160.9911777954
 20
91.8059926876
 30
0.0
 40
1.0
  0
CIRCLE
  5
148
330
103
100
AcDbEntity
  8
0
  6
Continuous
 62
     7
370
    25
100
AcDbCircle
 10
160.9911777954
 20
76.8059926876
 30
0.0
 40
1.0
  0
CIRCLE
  5
149
330
103
100
AcDbEntity
  8
0
  6
Continuous
 62
     7
370
    25
100
AcDbCircle
 10
19.4911777954
 20
94.5559926876
 30
0.0
 40
1.0
  0
CIRCLE
  5
14A
330
103
100
AcDbEntity
  8
0
  6
Continuous
 62
     7
370
    25
100
AcDbCircle
 10
19.4911777954
 20
133.5559926876
 30
0.0
 40
1.0
  0
CIRCLE
  5
14B
330
103
100
AcDbEntity
  8
0
  6
Continuous
 62
     7
370
    25
100
AcDbCircle
 10
19.4911777954
 20
55.5559926876
 30
0.0
 40
1.0
  0
CIRCLE
  5
14C
330
103
100
AcDbEntity
  8
0
  6
Continuous
 62
     7
370
    25
100
AcDbCircle
 10
19.4911777954
 20
113.0559926876
 30
0.0
 40
1.0
  0
CIRCLE
  5
14D
330
103
100
AcDbEntity
  8
0
  6
Continuous
 62
     7
370
    25
100
AcDbCircle
 10
19.4911777954
 20
35.0559926876
 30
0.0
 40
1.0
  0
CIRCLE
  5
14E
330
103
100
AcDbEntity
  8
0
  6
Continuous
 62
     7
370
    25
100
AcDbCircle
 10
160.9911777954
 20
130.8059926876
 30
0.0
 40
1.0
  0
CIRCLE
  5
14F
330
103
100
AcDbEntity
  8
0
  6
Continuous
 62
     7
370
    25
100
AcDbCircle
 10
160.9911777954
 20
52.8059926876
 30
0.0
 40
1.0
  0
CIRCLE
  5
150
330
103
100
AcDbEntity
  8
0
  6
Continuous
 62
     7
370
    25
100
AcDbCircle
 10
160.9911777954
 20
115.8059926876
 30
0.0
 40
1.0
  0
CIRCLE
  5
151
330
103
100
AcDbEntity
  8
0
  6
Continuous
 62
     7
370
    25
100
AcDbCircle
 10
160.9911777954
 20
37.8059926876
 30
0.0
 40
1.0
  0
LINE
  5
152
330
103
100
AcDbEntity
  8
0
  6
Continuous
 62
     7
370
    25
100
AcDbLine
 10
222.4911809545
 20
69.8059931048
 30
0.0
 11
214.9911806564
 21
69.8059931048
 31
0.0
  0
ARC
  5
153
330
103
100
AcDbEntity
  8
0
  6
Continuous
 62
     7
370
    25
100
AcDbCircle
 10
214.9911777954
 20
64.8059926876
 30
0.0
 40
5.000000000000007
100
AcDbArc
 50
90.0
 51
270.0
  0
LINE
  5
154
330
103
100
AcDbEntity
  8
0
  6
Continuous
 62
     7
370
    25
100
AcDbLine
 10
214.9911806564
 20
59.8059933284
 30
0.0
 11
222.4911809545
 21
59.8059933284
 31
0.0
  0
LINE
  5
155
330
103
100
AcDbEntity
  8
0
  6
Continuous
 62
     7
370
    25
100
AcDbLine
 10
222.4911809545
 20
30.8059923002
 30
0.0
 11
208.4911749344
 21
30.8059923002
 31
0.0
  0
ARC
  5
156
330
103
100
AcDbEntity
  8
0
  6
Continuous
 62
     7
370
    25
100
AcDbCircle
 10
208.4911777954
 20
19.8059926876
 30
0.0
 40
11.0
100
AcDbArc
 50
90.0
 51
180.0
  0
ARC
  5
157
330
103
100
AcDbEntity
  8
0
  6
Continuous
 62
     7
370
    25
100
AcDbCircle
 10
208.4911777954
 20
148.8059926876
 30
0.0
 40
11.00000000000003
100
AcDbArc
 50
180.0
 51
270.0
  0
LINE
  5
158
330
103
100
AcDbEntity
  8
0
  6
Continuous
 62
     7
370
    25
100
AcDbLine
 10
208.4911749344
 20
137.805993075
 30
0.0
 11
222.4911809545
 21
137.805993075
 31
0.0
  0
LINE
  5
159
330
103
100
AcDbEntity
  8
0
  6
Continuous
 62
     7
370
    25
100
AcDbLine
 10
222.4911809545
 20
108.8059920469
 30
0.0
 11
214.9911806564
 21
108.8059920469
 31
0.0
  0
ARC
  5
15A
330
103
100
AcDbEntity
  8
0
  6
Continuous
 62
     7
370
    25
100
AcDbCircle
 10
214.9911777954
 20
103.8059926876
 30
0.0
 40
5.0
100
AcDbArc
 50
90.0
 51
270.0
  0
LINE
  5
15B
330
103
100
AcDbEntity
  8
0
  6
Continuous
 62
     7
370
    25
100
AcDbLine
 10
214.9911806564
 20
98.8059922704
 30
0.0
 11
222.4911809545
 21
98.8059922704
 31
0.0
  0
CIRCLE
  5
15C
330
103
100
AcDbEntity
  8
0
  6
Continuous
 62
     7
370
    25
100
AcDbCircle
 10
82.4911777954
 20
74.3059926876
 30
0.0
 40
1.250000000000014
  0
CIRCLE
  5
15D
330
103
100
AcDbEntity
  8
0
  6
Continuous
 62
     7
370
    25
100
AcDbCircle
 10
82.4911777954
 20
125.8059926876
 30
0.0
 40
1.250000000000028
  0
CIRCLE
  5
15E
330
103
100
AcDbEntity
  8
0
  6
Continuous
 62
     7
370
    25
100
AcDbCircle
 10
82.4911777954
 20
94.3059926876
 30
0.0
 40
1.25
  0
CIRCLE
  5
15F
330
103
100
AcDbEntity
  8
0
  6
Continuous
 62
     7
370
    25
100
AcDbCircle
 10
82.4911777954
 20
42.8059926876
 30
0.0
 40
1.250000000000007
  0
CIRCLE
  5
160
330
103
100
AcDbEntity
  8
0
  6
Continuous
 62
     7
370
    25
100
AcDbCircle
 10
140.4911777954
 20
50.8059926876
 30
0.0
 40
1.25
  0
CIRCLE
  5
161
330
103
100
AcDbEntity
  8
0
  6
Continuous
 62
     7
370
    25
100
AcDbCircle
 10
182.4911777954
 20
117.8059926876
 30
0.0
 40
1.25
  0
CIRCLE
  5
162
330
103
100
AcDbEntity
  8
0
  6
Continuous
 62
     7
370
    25
100
AcDbCircle
 10
182.4911777954
 20
50.8059926876
 30
0.0
 40
1.250000000000007
  0
CIRCLE
  5
163
330
103
100
AcDbEntity
  8
0
  6
Continuous
 62
     7
370
    25
100
AcDbCircle
 10
140.4911777954
 20
117.8059926876
 30
0.0
 40
1.25
  0
LINE
  5
164
330
103
100
AcDbEntity
  8
0
  6
Continuous
 62
     7
370
    25
100
AcDbLine
 10
13.4911746364
 20
148.8059892901
 30
0.0
 11
13.4911746364
 21
19.8059960851
 31
0.0
  0
LINE
  5
165
330
103
100
AcDbEntity
  8
0
  6
Continuous
 62
     7
370
    25
100
AcDbLine
 10
197.491174994
 20
148.8059892901
 30
0.0
 11
13.4911746364
 21
148.8059892901
 31
0.0
  0
LINE
  5
166
330
103
100
AcDbEntity
  8
0
  6
Continuous
 62
     7
370
    25
100
AcDbLine
 10
222.4911809545
 20
108.8059920469
 30
0.0
 11
222.4911809545
 21
137.805993075
 31
0.0
  0
LINE
  5
167
330
103
100
AcDbEntity
  8
0
  6
Continuous
 62
     7
370
    25
100
AcDbLine
 10
13.4911746364
 20
19.8059960851
 30
0.0
 11
197.491174994
 21
19.8059960851
 31
0.0
  0
LINE
  5
168
330
103
100
AcDbEntity
  8
0
  6
Continuous
 62
     7
370
    25
100
AcDbLine
 10
222.4911809545
 20
30.8059923002
 30
0.0
 11
222.4911809545
 21
59.8059933284
 31
0.0
  0
LINE
  5
169
330
103
100
AcDbEntity
  8
0
  6
Continuous
 62
     7
370
    25
100
AcDbLine
 10
222.4911809545
 20
69.8059931048
 30
0.0
 11
222.4911809545
 21
98.8059922704
 31
0.0
  0
ARC
  5
16A
330
103
100
AcDbEntity
  8
0
  6
Continuous
 62
     7
370
    25
100
AcDbCircle
 10
173.0045844918
 20
247.4419041044
 30
0.0
 40
4.000000000000028
100
AcDbArc
 50
180.0
 51
198.8860873697
  0
ARC
  5
16B
330
103
100
AcDbEntity
  8
0
  6
Continuous
 62
     7
370
    25
100
AcDbCircle
 10
173.0045844918
 20
267.776620641
 30
0.0
 40
4.000000000000028
100
AcDbArc
 50
90.0
 51
180.0
  0
ARC
  5
16C
330
103
100
AcDbEntity
  8
0
  6
Continuous
 62
     7
370
    25
100
AcDbCircle
 10
178.5045844918
 20
267.776620641
 30
0.0
 40
4.0
100
AcDbArc
 50
0.0
 51
90.0
  0
LINE
  5
16D
330
103
100
AcDbEntity
  8
0
  6
Continuous
 62
     7
370
    25
100
AcDbLine
 10
182.5045851027
 20
267.7766173031
 30
0.0
 11
182.5045851027
 21
260.7766180184
 31
0.0
  0
ARC
  5
16E
330
103
100
AcDbEntity
  8
0
  6
Continuous
 62
     7
370
    25
100
AcDbCircle
 10
186.5045844918
 20
260.776620641
 30
0.0
 40
4.0
100
AcDbArc
 50
180.0
 51
270.0
  0
LINE
  5
16F
330
103
100
AcDbEntity
  8
0
  6
Continuous
 62
     7
370
    25
100
AcDbLine
 10
186.5045848271
 20
256.7766173627
 30
0.0
 11
216.5045841565
 21
256.7766173627
 31
0.0
  0
ARC
  5
170
330
103
100
AcDbEntity
  8
0
  6
Continuous
 62
     7
370
    25
100
AcDbCircle
 10
216.5045844918
 20
260.776620641
 30
0.0
 40
4.0
100
AcDbArc
 50
270.0
 51
0.0
  0
LINE
  5
171
330
103
100
AcDbEntity
  8
0
  6
Continuous
 62
     7
370
    25
100
AcDbLine
 10
220.5045838808
 20
260.7766180184
 30
0.0
 11
220.5045838808
 21
267.7766173031
 31
0.0
  0
ARC
  5
172
330
103
100
AcDbEntity
  8
0
  6
Continuous
 62
     7
370
    25
100
AcDbCircle
 10
224.5045844918
 20
267.776620641
 30
0.0
 40
4.0
100
AcDbArc
 50
90.0
 51
180.0
  0
ARC
  5
173
330
103
100
AcDbEntity
  8
0
  6
Continuous
 62
     7
370
    25
100
AcDbCircle
 10
230.0045844918
 20
267.776620641
 30
0.0
 40
4.000000000000028
100
AcDbArc
 50
0.0
 51
90.0
  0
ARC
  5
174
330
103
100
AcDbEntity
  8
0
  6
Continuous
 62
     7
370
    25
100
AcDbCircle
 10
230.0045844918
 20
247.4419041044
 30
0.0
 40
4.000000000000028
100
AcDbArc
 50
341.1139126303
 51
0.0
  0
ARC
  5
175
330
103
100
AcDbEntity
  8
0
  6
Continuous
 62
     7
370
    25
100
AcDbCircle
 10
201.5045844918
 20
182.6705985302
 30
0.0
 40
10.00000000000001
100
AcDbArc
 50
198.8860873697
 51
341.1139126303
  0
ARC
  5
176
330
103
100
AcDbEntity
  8
0
  6
Continuous
 62
     7
370
    25
100
AcDbCircle
 10
225.5045844918
 20
266.776620641
 30
0.0
 40
2.60000000000008
100
AcDbArc
 50
90.0
 51
270.0
  0
LINE
  5
177
330
103
100
AcDbEntity
  8
0
  6
Continuous
 62
     7
370
    25
100
AcDbLine
 10
225.5045847004
 20
264.1766234186
 30
0.0
 11
227.5045850282
 21
264.1766234186
 31
0.0
  0
ARC
  5
178
330
103
100
AcDbEntity
  8
0
  6
Continuous
 62
     7
370
    25
100
AcDbCircle
 10
227.5045844918
 20
266.776620641
 30
0.0
 40
2.60000000000008
100
AcDbArc
 50
270.0
 51
90.0
  0
LINE
  5
179
330
103
100
AcDbEntity
  8
0
  6
Continuous
 62
     7
370
    25
100
AcDbLine
 10
227.5045850282
 20
269.3766220357
 30
0.0
 11
225.5045847004
 21
269.3766220357
 31
0.0
  0
ARC
  5
17A
330
103
100
AcDbEntity
  8
0
  6
Continuous
 62
     7
370
    25
100
AcDbCircle
 10
177.5045844918
 20
266.776620641
 30
0.0
 40
2.60000000000008
100
AcDbArc
 50
270.0
 51
90.0
  0
LINE
  5
17B
330
103
100
AcDbEntity
  8
0
  6
Continuous
 62
     7
370
    25
100
AcDbLine
 10
177.5045842832
 20
269.3766220357
 30
0.0
 11
175.5045839554
 21
269.3766220357
 31
0.0
  0
ARC
  5
17C
330
103
100
AcDbEntity
  8
0
  6
Continuous
 62
     7
370
    25
100
AcDbCircle
 10
175.5045844918
 20
266.776620641
 30
0.0
 40
2.60000000000008
100
AcDbArc
 50
90.0
 51
270.0
  0
LINE
  5
17D
330
103
100
AcDbEntity
  8
0
  6
Continuous
 62
     7
370
    25
100
AcDbLine
 10
175.5045839554
 20
264.1766234186
 30
0.0
 11
177.5045842832
 21
264.1766234186
 31
0.0
  0
CIRCLE
  5
17E
330
103
100
AcDbEntity
  8
0
  6
Continuous
 62
     7
370
    25
100
AcDbCircle
 10
201.5045844918
 20
182.6705985302
 30
0.0
 40
2.750000000000028
  0
LINE
  5
17F
330
103
100
AcDbEntity
  8
0
  6
Continuous
 62
     7
370
    25
100
AcDbLine
 10
169.2199298149
 20
246.1471496966
 30
0.0
 11
192.0429450428
 21
179.4337215718
 31
0.0
  0
LINE
  5
180
330
103
100
AcDbEntity
  8
0
  6
Continuous
 62
     7
370
    25
100
AcDbLine
 10
169.0045856839
 20
267.7766173031
 30
0.0
 11
169.0045856839
 21
247.4419041421
 31
0.0
  0
LINE
  5
181
330
103
100
AcDbEntity
  8
0
  6
Continuous
 62
     7
370
    25
100
AcDbLine
 10
230.0045845067
 20
271.7766179588
 30
0.0
 11
224.5045845365
 21
271.7766179588
 31
0.0
  0
LINE
  5
182
330
103
100
AcDbEntity
  8
0
  6
Continuous
 62
     7
370
    25
100
AcDbLine
 10
234.0045832997
 20
247.4419041421
 30
0.0
 11
234.0045832997
 21
267.7766173031
 31
0.0
  0
LINE
  5
183
330
103
100
AcDbEntity
  8
0
  6
Continuous
 62
     7
370
    25
100
AcDbLine
 10
210.9662239408
 20
179.4337215718
 30
0.0
 11
233.7892391687
 21
246.1471496966
 31
0.0
  0
LINE
  5
184
330
103
100
AcDbEntity
  8
0
  6
Continuous
 62
     7
370
    25
100
AcDbLine
 10
178.5045844471
 20
271.7766179588
 30
0.0
 11
173.0045844769
 21
271.7766179588
 31
0.0
  0
ARC
  5
185
330
103
100
AcDbEntity
  8
0
  6
Continuous
 62
     7
370
    25
100
AcDbCircle
 10
274.6207394608
 20
267.9793255009
 30
0.0
 40
3.0
100
AcDbArc
 50
0.0
 51
90.0
  0
LINE
  5
186
330
103
100
AcDbEntity
  8
0
  6
Continuous
 62
     7
370
    25
100
AcDbLine
 10
277.6207394012
 20
267.9793238915
 30
0.0
 11
277.6207394012
 21
231.4793253593
 31
0.0
  0
ARC
  5
187
330
103
100
AcDbEntity
  8
0
  6
Continuous
 62
     7
370
    25
100
AcDbCircle
 10
280.6207394608
 20
231.4793255009
 30
0.0
 40
3.000000000000028
100
AcDbArc
 50
180.0
 51
270.0
  0
LINE
  5
188
330
103
100
AcDbEntity
  8
0
  6
Continuous
 62
     7
370
    25
100
AcDbLine
 10
280.6207398929
 20
228.4793253332
 30
0.0
 11
281.1207390435
 21
228.4793253332
 31
0.0
  0
ARC
  5
189
330
103
100
AcDbEntity
  8
0
  6
Continuous
 62
     7
370
    25
100
AcDbCircle
 10
281.1207394608
 20
225.4793255009
 30
0.0
 40
3.0
100
AcDbArc
 50
0.0
 51
90.0
  0
ARC
  5
18A
330
103
100
AcDbEntity
  8
0
  6
Continuous
 62
     7
370
    25
100
AcDbCircle
 10
252.1207394608
 20
225.4793255009
 30
0.0
 40
3.0
100
AcDbArc
 50
90.0
 51
180.0
  0
LINE
  5
18B
330
103
100
AcDbEntity
  8
0
  6
Continuous
 62
     7
370
    25
100
AcDbLine
 10
252.120739878
 20
228.4793253332
 30
0.0
 11
252.6207390286
 21
228.4793253332
 31
0.0
  0
ARC
  5
18C
330
103
100
AcDbEntity
  8
0
  6
Continuous
 62
     7
370
    25
100
AcDbCircle
 10
252.6207394608
 20
231.4793255009
 30
0.0
 40
3.000000000000028
100
AcDbArc
 50
270.0
 51
0.0
  0
LINE
  5
18D
330
103
100
AcDbEntity
  8
0
  6
Continuous
 62
     7
370
    25
100
AcDbLine
 10
255.6207395204
 20
231.4793253593
 30
0.0
 11
255.6207395204
 21
267.9793238915
 31
0.0
  0
ARC
  5
18E
330
103
100
AcDbEntity
  8
0
  6
Continuous
 62
     7
370
    25
100
AcDbCircle
 10
258.6207394608
 20
267.9793255009
 30
0.0
 40
3.000000000000028
100
AcDbArc
 50
90.0
 51
180.0
  0
CIRCLE
  5
18F
330
103
100
AcDbEntity
  8
0
  6
Continuous
 62
     7
370
    25
100
AcDbCircle
 10
259.1207394608
 20
259.9793255009
 30
0.0
 40
1.5
  0
CIRCLE
  5
190
330
103
100
AcDbEntity
  8
0
  6
Continuous
 62
     7
370
    25
100
AcDbCircle
 10
259.1207394608
 20
231.9793255009
 30
0.0
 40
1.5
  0
CIRCLE
  5
191
330
103
100
AcDbEntity
  8
0
  6
Continuous
 62
     7
370
    25
100
AcDbCircle
 10
274.1207394608
 20
231.9793255009
 30
0.0
 40
1.5
  0
CIRCLE
  5
192
330
103
100
AcDbEntity
  8
0
  6
Continuous
 62
     7
370
    25
100
AcDbCircle
 10
274.1207394608
 20
259.9793255009
 30
0.0
 40
1.5
  0
CIRCLE
  5
193
330
103
100
AcDbEntity
  8
0
  6
Continuous
 62
     7
370
    25
100
AcDbCircle
 10
271.3707394608
 20
266.9793255009
 30
0.0
 40
1.0
  0
CIRCLE
  5
194
330
103
100
AcDbEntity
  8
0
  6
Continuous
 62
     7
370
    25
100
AcDbCircle
 10
261.8707394608
 20
266.9793255009
 30
0.0
 40
1.0
  0
CIRCLE
  5
195
330
103
100
AcDbEntity
  8
0
  6
Continuous
 62
     7
370
    25
100
AcDbCircle
 10
254.1207394608
 20
175.9793255009
 30
0.0
 40
1.250000000000028
  0
CIRCLE
  5
196
330
103
100
AcDbEntity
  8
0
  6
Continuous
 62
     7
370
    25
100
AcDbCircle
 10
279.1207394608
 20
175.9793255009
 30
0.0
 40
1.25
  0
CIRCLE
  5
197
330
103
100
AcDbEntity
  8
0
  6
Continuous
 62
     7
370
    25
100
AcDbCircle
 10
254.1207394608
 20
200.9793255009
 30
0.0
 40
1.250000000000028
  0
CIRCLE
  5
198
330
103
100
AcDbEntity
  8
0
  6
Continuous
 62
     7
370
    25
100
AcDbCircle
 10
279.1207394608
 20
200.9793255009
 30
0.0
 40
1.25
  0
CIRCLE
  5
199
330
103
100
AcDbEntity
  8
0
  6
Continuous
 62
     7
370
    25
100
AcDbCircle
 10
266.6207394608
 20
175.9793255009
 30
0.0
 40
1.25
  0
CIRCLE
  5
19A
330
103
100
AcDbEntity
  8
0
  6
Continuous
 62
     7
370
    25
100
AcDbCircle
 10
266.6207394608
 20
200.9793255009
 30
0.0
 40
1.25
  0
LINE
  5
19B
330
103
100
AcDbEntity
  8
0
  6
Continuous
 62
     7
370
    25
100
AcDbLine
 10
274.6207398408
 20
270.9793262459
 30
0.0
 11
258.6207390808
 21
270.9793262459
 31
0.0
  0
LINE
  5
19C
330
103
100
AcDbEntity
  8
0
  6
Continuous
 62
     7
370
    25
100
AcDbLine
 10
284.1207395353
 20
170.9793247558
 30
0.0
 11
284.1207395353
 21
225.4793253071
 31
0.0
  0
LINE
  5
19D
330
103
100
AcDbEntity
  8
0
  6
Continuous
 62
     7
370
    25
100
AcDbLine
 10
249.1207393863
 20
170.9793247558
 30
0.0
 11
284.1207395353
 21
170.9793247558
 31
0.0
  0
LINE
  5
19E
330
103
100
AcDbEntity
  8
0
  6
Continuous
 62
     7
370
    25
100
AcDbLine
 10
249.1207393863
 20
225.4793253071
 30
0.0
 11
249.1207393863
 21
170.9793247558
 31
0.0
  0
ARC
  5
19F
330
103
100
AcDbEntity
  8
0
  6
Continuous
 62
     7
370
    25
100
AcDbCircle
 10
364.6366672054
 20
267.9793255009
 30
0.0
 40
3.0
100
AcDbArc
 50
0.0
 51
90.0
  0
LINE
  5
1A0
330
103
100
AcDbEntity
  8
0
  6
Continuous
 62
     7
370
    25
100
AcDbLine
 10
367.6366671458
 20
267.9793238915
 30
0.0
 11
367.6366671458
 21
231.4793253593
 31
0.0
  0
ARC
  5
1A1
330
103
100
AcDbEntity
  8
0
  6
Continuous
 62
     7
370
    25
100
AcDbCircle
 10
370.6366672054
 20
231.4793255009
 30
0.0
 40
3.000000000000028
100
AcDbArc
 50
180.0
 51
270.0
  0
LINE
  5
1A2
330
103
100
AcDbEntity
  8
0
  6
Continuous
 62
     7
370
    25
100
AcDbLine
 10
370.6366676376
 20
228.4793253332
 30
0.0
 11
371.1366667882
 21
228.4793253332
 31
0.0
  0
ARC
  5
1A3
330
103
100
AcDbEntity
  8
0
  6
Continuous
 62
     7
370
    25
100
AcDbCircle
 10
371.1366672054
 20
225.4793255009
 30
0.0
 40
3.000000000000057
100
AcDbArc
 50
0.0
 51
90.0
  0
ARC
  5
1A4
330
103
100
AcDbEntity
  8
0
  6
Continuous
 62
     7
370
    25
100
AcDbCircle
 10
342.1366672054
 20
225.4793255009
 30
0.0
 40
3.0
100
AcDbArc
 50
90.0
 51
180.0
  0
LINE
  5
1A5
330
103
100
AcDbEntity
  8
0
  6
Continuous
 62
     7
370
    25
100
AcDbLine
 10
342.1366676227
 20
228.4793253332
 30
0.0
 11
342.6366667733
 21
228.4793253332
 31
0.0
  0
ARC
  5
1A6
330
103
100
AcDbEntity
  8
0
  6
Continuous
 62
     7
370
    25
100
AcDbCircle
 10
342.6366672054
 20
231.4793255009
 30
0.0
 40
3.000000000000028
100
AcDbArc
 50
270.0
 51
0.0
  0
LINE
  5
1A7
330
103
100
AcDbEntity
  8
0
  6
Continuous
 62
     7
370
    25
100
AcDbLine
 10
345.636667265
 20
231.4793253593
 30
0.0
 11
345.636667265
 21
267.9793238915
 31
0.0
  0
ARC
  5
1A8
330
103
100
AcDbEntity
  8
0
  6
Continuous
 62
     7
370
    25
100
AcDbCircle
 10
348.6366672054
 20
267.9793255009
 30
0.0
 40
3.0
100
AcDbArc
 50
90.0
 51
180.0
  0
CIRCLE
  5
1A9
330
103
100
AcDbEntity
  8
0
  6
Continuous
 62
     7
370
    25
100
AcDbCircle
 10
349.1366672054
 20
259.9793255009
 30
0.0
 40
1.5
  0
CIRCLE
  5
1AA
330
103
100
AcDbEntity
  8
0
  6
Continuous
 62
     7
370
    25
100
AcDbCircle
 10
349.1366672054
 20
231.9793255009
 30
0.0
 40
1.5
  0
CIRCLE
  5
1AB
330
103
100
AcDbEntity
  8
0
  6
Continuous
 62
     7
370
    25
100
AcDbCircle
 10
364.1366672054
 20
231.9793255009
 30
0.0
 40
1.5
  0
CIRCLE
  5
1AC
330
103
100
AcDbEntity
  8
0
  6
Continuous
 62
     7
370
    25
100
AcDbCircle
 10
364.1366672054
 20
259.9793255009
 30
0.0
 40
1.5
  0
CIRCLE
  5
1AD
330
103
100
AcDbEntity
  8
0
  6
Continuous
 62
     7
370
    25
100
AcDbCircle
 10
361.3866672054
 20
266.9793255009
 30
0.0
 40
1.0
  0
CIRCLE
  5
1AE
330
103
100
AcDbEntity
  8
0
  6
Continuous
 62
     7
370
    25
100
AcDbCircle
 10
351.8866672054
 20
266.9793255009
 30
0.0
 40
1.0
  0
CIRCLE
  5
1AF
330
103
100
AcDbEntity
  8
0
  6
Continuous
 62
     7
370
    25
100
AcDbCircle
 10
344.1366672054
 20
175.9793255009
 30
0.0
 40
1.250000000000057
  0
CIRCLE
  5
1B0
330
103
100
AcDbEntity
  8
0
  6
Continuous
 62
     7
370
    25
100
AcDbCircle
 10
369.1366672054
 20
175.9793255009
 30
0.0
 40
1.25
  0
CIRCLE
  5
1B1
330
103
100
AcDbEntity
  8
0
  6
Continuous
 62
     7
370
    25
100
AcDbCircle
 10
344.1366672054
 20
200.9793255009
 30
0.0
 40
1.250000000000057
  0
CIRCLE
  5
1B2
330
103
100
AcDbEntity
  8
0
  6
Continuous
 62
     7
370
    25
100
AcDbCircle
 10
369.1366672054
 20
200.9793255009
 30
0.0
 40
1.25
  0
CIRCLE
  5
1B3
330
103
100
AcDbEntity
  8
0
  6
Continuous
 62
     7
370
    25
100
AcDbCircle
 10
356.6366672054
 20
175.9793255009
 30
0.0
 40
1.250000000000057
  0
CIRCLE
  5
1B4
330
103
100
AcDbEntity
  8
0
  6
Continuous
 62
     7
370
    25
100
AcDbCircle
 10
356.6366672054
 20
200.9793255009
 30
0.0
 40
1.250000000000057
  0
LINE
  5
1B5
330
103
100
AcDbEntity
  8
0
  6
Continuous
 62
     7
370
    25
100
AcDbLine
 10
364.6366675854
 20
270.9793262459
 30
0.0
 11
348.6366668254
 21
270.9793262459
 31
0.0
  0
LINE
  5
1B6
330
103
100
AcDbEntity
  8
0
  6
Continuous
 62
     7
370
    25
100
AcDbLine
 10
374.1366672799
 20
170.9793247558
 30
0.0
 11
374.1366672799
 21
225.4793253071
 31
0.0
  0
LINE
  5
1B7
330
103
100
AcDbEntity
  8
0
  6
Continuous
 62
     7
370
    25
100
AcDbLine
 10
339.1366671309
 20
170.9793247558
 30
0.0
 11
374.1366672799
 21
170.9793247558
 31
0.0
  0
LINE
  5
1B8
330
103
100
AcDbEntity
  8
0
  6
Continuous
 62
     7
370
    25
100
AcDbLine
 10
339.1366671309
 20
225.4793253071
 30
0.0
 11
339.1366671309
 21
170.9793247558
 31
0.0
  0
ARC
  5
1B9
330
103
100
AcDbEntity
  8
0
  6
Continuous
 62
     7
370
    25
100
AcDbCircle
 10
320.0267687099
 20
267.9793255009
 30
0.0
 40
3.0
100
AcDbArc
 50
0.0
 51
90.0
  0
LINE
  5
1BA
330
103
100
AcDbEntity
  8
0
  6
Continuous
 62
     7
370
    25
100
AcDbLine
 10
323.0267686503
 20
267.9793238915
 30
0.0
 11
323.0267686503
 21
231.4793253593
 31
0.0
  0
ARC
  5
1BB
330
103
100
AcDbEntity
  8
0
  6
Continuous
 62
     7
370
    25
100
AcDbCircle
 10
326.0267687099
 20
231.4793255009
 30
0.0
 40
3.000000000000028
100
AcDbArc
 50
180.0
 51
270.0
  0
LINE
  5
1BC
330
103
100
AcDbEntity
  8
0
  6
Continuous
 62
     7
370
    25
100
AcDbLine
 10
326.0267691421
 20
228.4793253332
 30
0.0
 11
326.5267682927
 21
228.4793253332
 31
0.0
  0
ARC
  5
1BD
330
103
100
AcDbEntity
  8
0
  6
Continuous
 62
     7
370
    25
100
AcDbCircle
 10
326.5267687099
 20
225.4793255009
 30
0.0
 40
3.0
100
AcDbArc
 50
0.0
 51
90.0
  0
ARC
  5
1BE
330
103
100
AcDbEntity
  8
0
  6
Continuous
 62
     7
370
    25
100
AcDbCircle
 10
297.5267687099
 20
225.4793255009
 30
0.0
 40
3.0
100
AcDbArc
 50
90.0
 51
180.0
  0
LINE
  5
1BF
330
103
100
AcDbEntity
  8
0
  6
Continuous
 62
     7
370
    25
100
AcDbLine
 10
297.5267691272
 20
228.4793253332
 30
0.0
 11
298.0267682778
 21
228.4793253332
 31
0.0
  0
ARC
  5
1C0
330
103
100
AcDbEntity
  8
0
  6
Continuous
 62
     7
370
    25
100
AcDbCircle
 10
298.0267687099
 20
231.4793255009
 30
0.0
 40
3.000000000000028
100
AcDbArc
 50
270.0
 51
0.0
  0
LINE
  5
1C1
330
103
100
AcDbEntity
  8
0
  6
Continuous
 62
     7
370
    25
100
AcDbLine
 10
301.0267687695
 20
231.4793253593
 30
0.0
 11
301.0267687695
 21
267.9793238915
 31
0.0
  0
ARC
  5
1C2
330
103
100
AcDbEntity
  8
0
  6
Continuous
 62
     7
370
    25
100
AcDbCircle
 10
304.0267687099
 20
267.9793255009
 30
0.0
 40
3.0
100
AcDbArc
 50
90.0
 51
180.0
  0
CIRCLE
  5
1C3
330
103
100
AcDbEntity
  8
0
  6
Continuous
 62
     7
370
    25
100
AcDbCircle
 10
304.5267687099
 20
259.9793255009
 30
0.0
 40
1.5
  0
CIRCLE
  5
1C4
330
103
100
AcDbEntity
  8
0
  6
Continuous
 62
     7
370
    25
100
AcDbCircle
 10
304.5267687099
 20
231.9793255009
 30
0.0
 40
1.5
  0
CIRCLE
  5
1C5
330
103
100
AcDbEntity
  8
0
  6
Continuous
 62
     7
370
    25
100
AcDbCircle
 10
319.5267687099
 20
231.9793255009
 30
0.0
 40
1.5
  0
CIRCLE
  5
1C6
330
103
100
AcDbEntity
  8
0
  6
Continuous
 62
     7
370
    25
100
AcDbCircle
 10
319.5267687099
 20
259.9793255009
 30
0.0
 40
1.5
  0
CIRCLE
  5
1C7
330
103
100
AcDbEntity
  8
0
  6
Continuous
 62
     7
370
    25
100
AcDbCircle
 10
316.7767687099
 20
266.9793255009
 30
0.0
 40
1.0
  0
CIRCLE
  5
1C8
330
103
100
AcDbEntity
  8
0
  6
Continuous
 62
     7
370
    25
100
AcDbCircle
 10
307.2767687099
 20
266.9793255009
 30
0.0
 40
1.0
  0
CIRCLE
  5
1C9
330
103
100
AcDbEntity
  8
0
  6
Continuous
 62
     7
370
    25
100
AcDbCircle
 10
299.5267687099
 20
175.9793255009
 30
0.0
 40
1.250000000000057
  0
CIRCLE
  5
1CA
330
103
100
AcDbEntity
  8
0
  6
Continuous
 62
     7
370
    25
100
AcDbCircle
 10
324.5267687099
 20
175.9793255009
 30
0.0
 40
1.25
  0
CIRCLE
  5
1CB
330
103
100
AcDbEntity
  8
0
  6
Continuous
 62
     7
370
    25
100
AcDbCircle
 10
299.5267687099
 20
200.9793255009
 30
0.0
 40
1.250000000000057
  0
CIRCLE
  5
1CC
330
103
100
AcDbEntity
  8
0
  6
Continuous
 62
     7
370
    25
100
AcDbCircle
 10
324.5267687099
 20
200.9793255009
 30
0.0
 40
1.25
  0
CIRCLE
  5
1CD
330
103
100
AcDbEntity
  8
0
  6
Continuous
 62
     7
370
    25
100
AcDbCircle
 10
312.0267687099
 20
175.9793255009
 30
0.0
 40
1.250000000000057
  0
CIRCLE
  5
1CE
330
103
100
AcDbEntity
  8
0
  6
Continuous
 62
     7
370
    25
100
AcDbCircle
 10
312.0267687099
 20
200.9793255009
 30
0.0
 40
1.250000000000057
  0
LINE
  5
1CF
330
103
100
AcDbEntity
  8
0
  6
Continuous
 62
     7
370
    25
100
AcDbLine
 10
320.0267690899
 20
270.9793262459
 30
0.0
 11
304.0267683299
 21
270.9793262459
 31
0.0
  0
LINE
  5
1D0
330
103
100
AcDbEntity
  8
0
  6
Continuous
 62
     7
370
    25
100
AcDbLine
 10
329.5267687844
 20
170.9793247558
 30
0.0
 11
329.5267687844
 21
225.4793253071
 31
0.0
  0
LINE
  5
1D1
330
103
100
AcDbEntity
  8
0
  6
Continuous
 62
     7
370
    25
100
AcDbLine
 10
294.5267686354
 20
170.9793247558
 30
0.0
 11
329.5267687844
 21
170.9793247558
 31
0.0
  0
LINE
  5
1D2
330
103
100
AcDbEntity
  8
0
  6
Continuous
 62
     7
370
    25
100
AcDbLine
 10
294.5267686354
 20
225.4793253071
 30
0.0
 11
294.5267686354
 21
170.9793247558
 31
0.0
  0
ENDBLK
  5
106
330
103
100
AcDbEntity
  8
0
100
AcDbBlockEnd
  0
BLOCK
  5
108
330
107
100
AcDbEntity
  8
0
100
AcDbBlockBegin
  2
SW_NOTE_3
 70
     0
 10
0.0
 20
0.0
 30
0.0
  3
SW_NOTE_3
  1

  0
MTEXT
  5
10A
330
107
100
AcDbEntity
  8
0
  6
Continuous
 62
     0
370
     0
100
AcDbMText
 10
0.0
 20
4.0927900738
 30
0.0
 40
3.175
 41
0.0
 71
     1
 72
     1
  1
SCALE 1:1
  7
SLDTEXTSTYLE0
 73
     1
 44
1.0
  0
MTEXT
  5
10B
330
107
100
AcDbEntity
  8
0
  6
Continuous
 62
     0
370
     0
100
AcDbMText
 10
0.0
 20
-0.0822098189
 30
0.0
 40
3.175
 41
0.0
 71
     1
 72
     1
  1
DIMENSIONS IN MM
  7
SLDTEXTSTYLE0
 73
     1
 44
1.0
  0
MTEXT
  5
10C
330
107
100
AcDbEntity
  8
0
  6
Continuous
 62
     0
370
     0
100
AcDbMText
 10
0.0
 20
-4.2572097116
 30
0.0
 40
3.175
 41
0.0
 71
     1
 72
     1
  1
PART MATERIAL: 1/8" ALUMINUM SHEET
  7
SLDTEXTSTYLE0
 73
     1
 44
1.0
  0
MTEXT
  5
10D
330
107
100
AcDbEntity
  8
0
  6
Continuous
 62
     0
370
     0
100
AcDbMText
 10
0.0
 20
-12.6072094971
 30
0.0
 40
3.175
 41
0.0
 71
     1
 72
     1
  1
VERSION 1.0 - 10/13/2016
  7
SLDTEXTSTYLE0
 73
     1
 44
1.0
  0
MTEXT
  5
10E
330
107
100
AcDbEntity
  8
0
  6
Continuous
 62
     0
370
     0
100
AcDbMText
 10
0.0
 20
-16.7822093898
 30
0.0
 40
3.175
 41
0.0
 71
     1
 72
     1
  1
VERSION 1.1 - 11/25/2017
  7
SLDTEXTSTYLE0
 73
     1
 44
1.0
  0
ENDBLK
  5
109
330
107
100
AcDbEntity
  8
0
100
AcDbBlockEnd
  0
BLOCK
  5
1D5
330
1D3
100
AcDbEntity
  8
0
100
AcDbBlockBegin
  2
*Paper_Space6
 70
     0
 10
0.0
 20
0.0
 30
0.0
  3
*Paper_Space6
  1

  0
INSERT
  5
1DE
330
1D3
100
AcDbEntity
  8
0
  6
Continuous
 62
     7
370
     0
100
AcDbBlockReference
  2
SW_NOTE_4
 10
109.3899769235
 20
258.49022332
 30
0.0
  0
LINE
  5
1DF
330
1D3
100
AcDbEntity
  8
0
  6
Continuous
 62
     7
370
    25
100
AcDbLine
 10
87.6010262615
 20
236.9439010423
 30
0.0
 11
52.6010251811
 21
236.9439010423
 31
0.0
  0
LINE
  5
1E0
330
1D3
100
AcDbEntity
  8
0
  6
Continuous
 62
     7
370
    25
100
AcDbLine
 10
87.6010262615
 20
90.143904547
 30
0.0
 11
87.6010262615
 21
236.9439010423
 31
0.0
  0
LINE
  5
1E1
330
1D3
100
AcDbEntity
  8
0
  6
Continuous
 62
     7
370
    25
100
AcDbLine
 10
52.6010251811
 20
90.143904547
 30
0.0
 11
87.6010262615
 21
90.143904547
 31
0.0
  0
LINE
  5
1E2
330
1D3
100
AcDbEntity
  8
0
  6
Continuous
 62
     7
370
    25
100
AcDbLine
 10
52.6010251811
 20
260.793902437
 30
0.0
 11
22.6010258517
 21
260.793902437
 31
0.0
  0
LINE
  5
1E3
330
1D3
100
AcDbEntity
  8
0
  6
Continuous
 62
     7
370
    25
100
AcDbLine
 10
52.6010251811
 20
66.2939031523
 30
0.0
 11
52.6010251811
 21
90.143904547
 31
0.0
  0
LINE
  5
1E4
330
1D3
100
AcDbEntity
  8
0
  6
Continuous
 62
     7
370
    25
100
AcDbLine
 10
22.6010258517
 20
66.2939031523
 30
0.0
 11
52.6010251811
 21
66.2939031523
 31
0.0
  0
LINE
  5
1E5
330
1D3
100
AcDbEntity
  8
0
  6
Continuous
 62
     7
370
    25
100
AcDbLine
 10
22.6010258517
 20
260.793902437
 30
0.0
 11
22.6010258517
 21
66.2939031523
 31
0.0
  0
LINE
  5
1E6
330
1D3
100
AcDbEntity
  8
0
  6
Continuous
 62
     7
370
    25
100
AcDbLine
 10
52.6010251811
 20
236.9439010423
 30
0.0
 11
52.6010251811
 21
260.793902437
 31
0.0
  0
ENDBLK
  5
1D6
330
1D3
100
AcDbEntity
  8
0
100
AcDbBlockEnd
  0
BLOCK
  5
1D8
330
1D7
100
AcDbEntity
  8
0
100
AcDbBlockBegin
  2
SW_NOTE_4
 70
     0
 10
0.0
 20
0.0
 30
0.0
  3
SW_NOTE_4
  1

  0
MTEXT
  5
1DA
330
1D7
100
AcDbEntity
  8
0
  6
Continuous
 62
     0
370
     0
100
AcDbMText
 10
0.0
 20
4.0927900738
 30
0.0
 40
3.175
 41
0.0
 71
     1
 72
     1
  1
SCALE 1:1
  7
SLDTEXTSTYLE0
 73
     1
 44
1.0
  0
MTEXT
  5
1DB
330
1D7
100
AcDbEntity
  8
0
  6
Continuous
 62
     0
370
     0
100
AcDbMText
 10
0.0
 20
-0.0822098189
 30
0.0
 40
3.175
 41
0.0
 71
     1
 72
     1
  1
DIMENSIONS IN MM
  7
SLDTEXTSTYLE0
 73
     1
 44
1.0
  0
MTEXT
  5
1DC
330
1D7
100
AcDbEntity
  8
0
  6
Continuous
 62
     0
370
     0
100
AcDbMText
 10
0.0
 20
-4.2572097116
 30
0.0
 40
3.175
 41
0.0
 71
     1
 72
     1
  1
PART MATERIAL: 1/8" ACRYLIC SHEET
  7
SLDTEXTSTYLE0
 73
     1
 44
1.0
  0
MTEXT
  5
1DD
330
1D7
100
AcDbEntity
  8
0
  6
Continuous
 62
     0
370
     0
100
AcDbMText
 10
0.0
 20
-12.6072094971
 30
0.0
 40
3.175
 41
0.0
 71
     1
 72
     1
  1
VERSION 1.0 - 10/13/2016
  7
SLDTEXTSTYLE0
 73
     1
 44
1.0
  0
ENDBLK
  5
1D9
330
1D7
100
AcDbEntity
  8
0
100
AcDbBlockEnd
  0
ENDSEC
  0
SECTION
  2
ENTITIES
  0
INSERT
  5
7C
330
1F
100
AcDbEntity
  8
0
  6
Continuous
 62
     7
370
     0
100
AcDbBlockReference
  2
SW_NOTE_0
 10
10.2099975699
 20
265.5529392957
 30
0.0
  0
ARC
  5
7D
330
1F
100
AcDbEntity
  8
0
  6
Continuous
 62
     7
370
    25
100
AcDbCircle
 10
51.2725052734
 20
32.1088654192
 30
0.0
 40
7.5
100
AcDbArc
 50
270.0
 51
0.0
  0
ARC
  5
7E
330
1F
100
AcDbEntity
  8
0
  6
Continuous
 62
     7
370
    25
100
AcDbCircle
 10
76.2725052734
 20
32.1088654192
 30
0.0
 40
7.500000000000011
100
AcDbArc
 50
180.0
 51
270.0
  0
LINE
  5
7F
330
1F
100
AcDbEntity
  8
0
  6
Continuous
 62
     7
370
    25
100
AcDbLine
 10
51.2725050871
 20
24.6088651957
 30
0.0
 11
13.7725045283
 21
24.6088651957
 31
0.0
  0
LINE
  5
80
330
1F
100
AcDbEntity
  8
0
  6
Continuous
 62
     7
370
    25
100
AcDbLine
 10
58.7725053851
 20
224.6088588627
 30
0.0
 11
58.7725053851
 21
32.1088654937
 31
0.0
  0
LINE
  5
81
330
1F
100
AcDbEntity
  8
0
  6
Continuous
 62
     7
370
    25
100
AcDbLine
 10
68.7725051616
 20
224.6088588627
 30
0.0
 11
58.7725053851
 21
224.6088588627
 31
0.0
  0
LINE
  5
82
330
1F
100
AcDbEntity
  8
0
  6
Continuous
 62
     7
370
    25
100
AcDbLine
 10
68.7725051616
 20
32.1088654937
 30
0.0
 11
68.7725051616
 21
224.6088588627
 31
0.0
  0
LINE
  5
83
330
1F
100
AcDbEntity
  8
0
  6
Continuous
 62
     7
370
    25
100
AcDbLine
 10
113.7725060184
 20
24.6088651957
 30
0.0
 11
76.2725054597
 21
24.6088651957
 31
0.0
  0
LINE
  5
84
330
1F
100
AcDbEntity
  8
0
  6
Continuous
 62
     7
370
    25
100
AcDbLine
 10
113.7725060184
 20
14.6088654192
 30
0.0
 11
113.7725060184
 21
24.6088651957
 31
0.0
  0
LINE
  5
85
330
1F
100
AcDbEntity
  8
0
  6
Continuous
 62
     7
370
    25
100
AcDbLine
 10
13.7725045283
 20
14.6088654192
 30
0.0
 11
113.7725060184
 21
14.6088654192
 31
0.0
  0
LINE
  5
86
330
1F
100
AcDbEntity
  8
0
  6
Continuous
 62
     7
370
    25
100
AcDbLine
 10
13.7725045283
 20
24.6088651957
 30
0.0
 11
13.7725045283
 21
14.6088654192
 31
0.0
  0
ARC
  5
87
330
1F
100
AcDbEntity
  8
0
  6
Continuous
 62
     7
370
    25
100
AcDbCircle
 10
94.7638287242
 20
222.9615393439
 30
0.0
 40
7.500000000000014
100
AcDbArc
 50
90.0
 51
180.0
  0
ARC
  5
88
330
1F
100
AcDbEntity
  8
0
  6
Continuous
 62
     7
370
    25
100
AcDbCircle
 10
69.7638287242
 20
222.9615393439
 30
0.0
 40
7.5
100
AcDbArc
 50
0.0
 51
90.0
  0
LINE
  5
89
330
1F
100
AcDbEntity
  8
0
  6
Continuous
 62
     7
370
    25
100
AcDbLine
 10
94.7638289104
 20
230.4615395674
 30
0.0
 11
132.2638294692
 21
230.4615395674
 31
0.0
  0
LINE
  5
8A
330
1F
100
AcDbEntity
  8
0
  6
Continuous
 62
     7
370
    25
100
AcDbLine
 10
87.2638286124
 20
30.4615459004
 30
0.0
 11
87.2638286124
 21
222.9615392694
 31
0.0
  0
LINE
  5
8B
330
1F
100
AcDbEntity
  8
0
  6
Continuous
 62
     7
370
    25
100
AcDbLine
 10
77.2638288359
 20
30.4615459004
 30
0.0
 11
87.2638286124
 21
30.4615459004
 31
0.0
  0
LINE
  5
8C
330
1F
100
AcDbEntity
  8
0
  6
Continuous
 62
     7
370
    25
100
AcDbLine
 10
77.2638288359
 20
222.9615392694
 30
0.0
 11
77.2638288359
 21
30.4615459004
 31
0.0
  0
LINE
  5
8D
330
1F
100
AcDbEntity
  8
0
  6
Continuous
 62
     7
370
    25
100
AcDbLine
 10
32.2638279791
 20
230.4615395674
 30
0.0
 11
69.7638285379
 21
230.4615395674
 31
0.0
  0
LINE
  5
8E
330
1F
100
AcDbEntity
  8
0
  6
Continuous
 62
     7
370
    25
100
AcDbLine
 10
32.2638279791
 20
240.4615393439
 30
0.0
 11
32.2638279791
 21
230.4615395674
 31
0.0
  0
LINE
  5
8F
330
1F
100
AcDbEntity
  8
0
  6
Continuous
 62
     7
370
    25
100
AcDbLine
 10
132.2638294692
 20
240.4615393439
 30
0.0
 11
32.2638279791
 21
240.4615393439
 31
0.0
  0
LINE
  5
90
330
1F
100
AcDbEntity
  8
0
  6
Continuous
 62
     7
370
    25
100
AcDbLine
 10
132.2638294692
 20
230.4615395674
 30
0.0
 11
132.2638294692
 21
240.4615393439
 31
0.0
  0
INSERT
  5
98
330
1B
100
AcDbEntity
 67
     1
  8
0
  6
Continuous
 62
     7
370
     0
100
AcDbBlockReference
  2
SW_NOTE_1
 10
334.3448879448
 20
259.1215993056
 30
0.0
  0
CIRCLE
  5
99
330
1B
100
AcDbEntity
 67
     1
  8
0
  6
Continuous
 62
     7
370
    25
100
AcDbCircle
 10
40.8383060835
 20
212.4028413032
 30
0.0
 40
2.100000000000023
  0
CIRCLE
  5
9A
330
1B
100
AcDbEntity
 67
     1
  8
0
  6
Continuous
 62
     7
370
    25
100
AcDbCircle
 10
55.8383060835
 20
257.4028413032
 30
0.0
 40
2.625000000000028
  0
CIRCLE
  5
9B
330
1B
100
AcDbEntity
 67
     1
  8
0
  6
Continuous
 62
     7
370
    25
100
AcDbCircle
 10
15.8383060835
 20
257.4028413032
 30
0.0
 40
2.625000000000028
  0
LINE
  5
9C
330
1B
100
AcDbEntity
 67
     1
  8
0
  6
Continuous
 62
     7
370
    25
100
AcDbLine
 10
5.8383060835
 20
267.4028413032
 30
0.0
 11
5.8383060835
 21
202.4028436874
 31
0.0
  0
LINE
  5
9D
330
1B
100
AcDbEntity
 67
     1
  8
0
  6
Continuous
 62
     7
370
    25
100
AcDbLine
 10
65.8383047424
 20
267.4028413032
 30
0.0
 11
5.8383060835
 21
267.4028413032
 31
0.0
  0
LINE
  5
9E
330
1B
100
AcDbEntity
 67
     1
  8
0
  6
Continuous
 62
     7
370
    25
100
AcDbLine
 10
65.8383047424
 20
212.4028416012
 30
0.0
 11
65.8383047424
 21
267.4028413032
 31
0.0
  0
ARC
  5
9F
330
1B
100
AcDbEntity
 67
     1
  8
0
  6
Continuous
 62
     7
370
    25
100
AcDbCircle
 10
55.8383060835
 20
212.4028413032
 30
0.0
 40
10.0
100
AcDbArc
 50
270.0
 51
0.0
  0
LINE
  5
A0
330
1B
100
AcDbEntity
 67
     1
  8
0
  6
Continuous
 62
     7
370
    25
100
AcDbLine
 10
5.8383060835
 20
202.4028436874
 30
0.0
 11
55.8383068285
 21
202.4028436874
 31
0.0
  0
CIRCLE
  5
A1
330
1B
100
AcDbEntity
 67
     1
  8
0
  6
Continuous
 62
     7
370
    25
100
AcDbCircle
 10
35.8383060835
 20
257.4028413032
 30
0.0
 40
2.624999999999972
  0
CIRCLE
  5
A2
330
1B
100
AcDbEntity
 67
     1
  8
0
  6
Continuous
 62
     7
370
    25
100
AcDbCircle
 10
28.1083060835
 20
237.4028413032
 30
0.0
 40
2.099999999999994
  0
CIRCLE
  5
A3
330
1B
100
AcDbEntity
 67
     1
  8
0
  6
Continuous
 62
     7
370
    25
100
AcDbCircle
 10
55.8383060835
 20
237.4028413032
 30
0.0
 40
4.0
  0
CIRCLE
  5
A4
330
1B
100
AcDbEntity
 67
     1
  8
0
  6
Continuous
 62
     7
370
    25
100
AcDbCircle
 10
55.8383060835
 20
217.4028413032
 30
0.0
 40
4.0
  0
CIRCLE
  5
A5
330
1B
100
AcDbEntity
 67
     1
  8
0
  6
Continuous
 62
     7
370
    25
100
AcDbCircle
 10
112.450307401
 20
257.4028413032
 30
0.0
 40
2.100000000000023
  0
CIRCLE
  5
A6
330
1B
100
AcDbEntity
 67
     1
  8
0
  6
Continuous
 62
     7
370
    25
100
AcDbCircle
 10
99.720307401
 20
232.4028413032
 30
0.0
 40
2.099999999999966
  0
CIRCLE
  5
A7
330
1B
100
AcDbEntity
 67
     1
  8
0
  6
Continuous
 62
     7
370
    25
100
AcDbCircle
 10
127.450307401
 20
212.4028413032
 30
0.0
 40
2.625
  0
CIRCLE
  5
A8
330
1B
100
AcDbEntity
 67
     1
  8
0
  6
Continuous
 62
     7
370
    25
100
AcDbCircle
 10
87.450307401
 20
212.4028413032
 30
0.0
 40
2.625
  0
LINE
  5
A9
330
1B
100
AcDbEntity
 67
     1
  8
0
  6
Continuous
 62
     7
370
    25
100
AcDbLine
 10
137.4503060599
 20
202.4028413032
 30
0.0
 11
77.450307401
 21
202.4028413032
 31
0.0
  0
LINE
  5
AA
330
1B
100
AcDbEntity
 67
     1
  8
0
  6
Continuous
 62
     7
370
    25
100
AcDbLine
 10
77.450307401
 20
202.4028413032
 30
0.0
 11
77.450307401
 21
267.402838919
 31
0.0
  0
LINE
  5
AB
330
1B
100
AcDbEntity
 67
     1
  8
0
  6
Continuous
 62
     7
370
    25
100
AcDbLine
 10
77.450307401
 20
267.402838919
 30
0.0
 11
127.450308146
 21
267.402838919
 31
0.0
  0
ARC
  5
AC
330
1B
100
AcDbEntity
 67
     1
  8
0
  6
Continuous
 62
     7
370
    25
100
AcDbCircle
 10
127.450307401
 20
257.4028413032
 30
0.0
 40
10.00000000000001
100
AcDbArc
 50
0.0
 51
90.0
  0
LINE
  5
AD
330
1B
100
AcDbEntity
 67
     1
  8
0
  6
Continuous
 62
     7
370
    25
100
AcDbLine
 10
137.4503060599
 20
257.4028410052
 30
0.0
 11
137.4503060599
 21
202.4028413032
 31
0.0
  0
CIRCLE
  5
AE
330
1B
100
AcDbEntity
 67
     1
  8
0
  6
Continuous
 62
     7
370
    25
100
AcDbCircle
 10
127.450307401
 20
232.4028413032
 30
0.0
 40
4.0
  0
CIRCLE
  5
AF
330
1B
100
AcDbEntity
 67
     1
  8
0
  6
Continuous
 62
     7
370
    25
100
AcDbCircle
 10
127.450307401
 20
252.4028413032
 30
0.0
 40
4.0
  0
CIRCLE
  5
B0
330
1B
100
AcDbEntity
 67
     1
  8
0
  6
Continuous
 62
     7
370
    25
100
AcDbCircle
 10
107.450307401
 20
212.4028413032
 30
0.0
 40
2.625
  0
CIRCLE
  5
B1
330
1B
100
AcDbEntity
 67
     1
  8
0
  6
Continuous
 62
     7
370
    25
100
AcDbCircle
 10
175.008664046
 20
257.144298061
 30
0.0
 40
2.624999999999972
  0
CIRCLE
  5
B2
330
1B
100
AcDbEntity
 67
     1
  8
0
  6
Continuous
 62
     7
370
    25
100
AcDbCircle
 10
190.008664046
 20
257.144298061
 30
0.0
 40
2.624999999999972
  0
LINE
  5
B3
330
1B
100
AcDbEntity
 67
     1
  8
0
  6
Continuous
 62
     7
370
    25
100
AcDbLine
 10
145.008664046
 20
267.144298061
 30
0.0
 11
145.008664046
 21
192.1442950808
 31
0.0
  0
LINE
  5
B4
330
1B
100
AcDbEntity
 67
     1
  8
0
  6
Continuous
 62
     7
370
    25
100
AcDbLine
 10
220.0086670262
 20
267.144298061
 30
0.0
 11
145.008664046
 21
267.144298061
 31
0.0
  0
LINE
  5
B5
330
1B
100
AcDbEntity
 67
     1
  8
0
  6
Continuous
 62
     7
370
    25
100
AcDbLine
 10
220.0086670262
 20
202.1443004452
 30
0.0
 11
220.0086670262
 21
267.144298061
 31
0.0
  0
ARC
  5
B6
330
1B
100
AcDbEntity
 67
     1
  8
0
  6
Continuous
 62
     7
370
    25
100
AcDbCircle
 10
210.008664046
 20
202.144298061
 30
0.0
 40
10.0
100
AcDbArc
 50
270.0
 51
0.0
  0
LINE
  5
B7
330
1B
100
AcDbEntity
 67
     1
  8
0
  6
Continuous
 62
     7
370
    25
100
AcDbLine
 10
145.008664046
 20
192.1442950808
 30
0.0
 11
210.0086616618
 21
192.1442950808
 31
0.0
  0
CIRCLE
  5
B8
330
1B
100
AcDbEntity
 67
     1
  8
0
  6
Continuous
 62
     7
370
    25
100
AcDbCircle
 10
155.008664046
 20
257.144298061
 30
0.0
 40
2.624999999999972
  0
CIRCLE
  5
B9
330
1B
100
AcDbEntity
 67
     1
  8
0
  6
Continuous
 62
     7
370
    25
100
AcDbCircle
 10
210.008664046
 20
257.144298061
 30
0.0
 40
2.624999999999972
  0
CIRCLE
  5
BA
330
1B
100
AcDbEntity
 67
     1
  8
0
  6
Continuous
 62
     7
370
    25
100
AcDbCircle
 10
210.508664046
 20
203.644298061
 30
0.0
 40
1.75
  0
CIRCLE
  5
BB
330
1B
100
AcDbEntity
 67
     1
  8
0
  6
Continuous
 62
     7
370
    25
100
AcDbCircle
 10
195.008664046
 20
219.144298061
 30
0.0
 40
11.4999999999998
  0
CIRCLE
  5
BC
330
1B
100
AcDbEntity
 67
     1
  8
0
  6
Continuous
 62
     7
370
    25
100
AcDbCircle
 10
179.508664046
 20
234.644298061
 30
0.0
 40
1.75
  0
CIRCLE
  5
BD
330
1B
100
AcDbEntity
 67
     1
  8
0
  6
Continuous
 62
     7
370
    25
100
AcDbCircle
 10
210.508664046
 20
234.644298061
 30
0.0
 40
1.750000000000142
  0
CIRCLE
  5
BE
330
1B
100
AcDbEntity
 67
     1
  8
0
  6
Continuous
 62
     7
370
    25
100
AcDbCircle
 10
179.508664046
 20
203.644298061
 30
0.0
 40
1.75
  0
CIRCLE
  5
BF
330
1B
100
AcDbEntity
 67
     1
  8
0
  6
Continuous
 62
     7
370
    25
100
AcDbCircle
 10
167.008664046
 20
252.144298061
 30
0.0
 40
1.599999999999994
  0
CIRCLE
  5
C0
330
1B
100
AcDbEntity
 67
     1
  8
0
  6
Continuous
 62
     7
370
    25
100
AcDbCircle
 10
167.008664046
 20
237.144298061
 30
0.0
 40
1.600000000000023
  0
CIRCLE
  5
C1
330
1B
100
AcDbEntity
 67
     1
  8
0
  6
Continuous
 62
     7
370
    25
100
AcDbCircle
 10
167.008664046
 20
222.144298061
 30
0.0
 40
1.599999999999994
  0
CIRCLE
  5
C2
330
1B
100
AcDbEntity
 67
     1
  8
0
  6
Continuous
 62
     7
370
    25
100
AcDbCircle
 10
167.008664046
 20
207.144298061
 30
0.0
 40
1.600000000000023
  0
CIRCLE
  5
C3
330
1B
100
AcDbEntity
 67
     1
  8
0
  6
Continuous
 62
     7
370
    25
100
AcDbCircle
 10
255.0071226568
 20
202.144298061
 30
0.0
 40
2.625
  0
CIRCLE
  5
C4
330
1B
100
AcDbEntity
 67
     1
  8
0
  6
Continuous
 62
     7
370
    25
100
AcDbCircle
 10
290.0071226568
 20
202.144298061
 30
0.0
 40
2.625
  0
CIRCLE
  5
C5
330
1B
100
AcDbEntity
 67
     1
  8
0
  6
Continuous
 62
     7
370
    25
100
AcDbCircle
 10
270.0071226568
 20
202.144298061
 30
0.0
 40
2.625
  0
CIRCLE
  5
C6
330
1B
100
AcDbEntity
 67
     1
  8
0
  6
Continuous
 62
     7
370
    25
100
AcDbCircle
 10
235.0071226568
 20
202.144298061
 30
0.0
 40
2.625
  0
LINE
  5
C7
330
1B
100
AcDbEntity
 67
     1
  8
0
  6
Continuous
 62
     7
370
    25
100
AcDbLine
 10
300.0071256371
 20
192.144298061
 30
0.0
 11
225.0071226568
 21
192.144298061
 31
0.0
  0
LINE
  5
C8
330
1B
100
AcDbEntity
 67
     1
  8
0
  6
Continuous
 62
     7
370
    25
100
AcDbLine
 10
225.0071226568
 20
192.144298061
 30
0.0
 11
225.0071226568
 21
267.1443010413
 31
0.0
  0
LINE
  5
C9
330
1B
100
AcDbEntity
 67
     1
  8
0
  6
Continuous
 62
     7
370
    25
100
AcDbLine
 10
225.0071226568
 20
267.1443010413
 30
0.0
 11
290.0071202726
 21
267.1443010413
 31
0.0
  0
LINE
  5
CA
330
1B
100
AcDbEntity
 67
     1
  8
0
  6
Continuous
 62
     7
370
    25
100
AcDbLine
 10
300.0071256371
 20
257.1442956769
 30
0.0
 11
300.0071256371
 21
192.144298061
 31
0.0
  0
CIRCLE
  5
CB
330
1B
100
AcDbEntity
 67
     1
  8
0
  6
Continuous
 62
     7
370
    25
100
AcDbCircle
 10
290.5071226568
 20
255.644298061
 30
0.0
 40
1.750000000000028
  0
CIRCLE
  5
CC
330
1B
100
AcDbEntity
 67
     1
  8
0
  6
Continuous
 62
     7
370
    25
100
AcDbCircle
 10
275.0071226568
 20
240.144298061
 30
0.0
 40
11.49999999999977
  0
CIRCLE
  5
CD
330
1B
100
AcDbEntity
 67
     1
  8
0
  6
Continuous
 62
     7
370
    25
100
AcDbCircle
 10
259.5071226568
 20
224.644298061
 30
0.0
 40
1.75
  0
CIRCLE
  5
CE
330
1B
100
AcDbEntity
 67
     1
  8
0
  6
Continuous
 62
     7
370
    25
100
AcDbCircle
 10
290.5071226568
 20
224.644298061
 30
0.0
 40
1.750000000000142
  0
CIRCLE
  5
CF
330
1B
100
AcDbEntity
 67
     1
  8
0
  6
Continuous
 62
     7
370
    25
100
AcDbCircle
 10
259.5071226568
 20
255.644298061
 30
0.0
 40
1.750000000000028
  0
CIRCLE
  5
D0
330
1B
100
AcDbEntity
 67
     1
  8
0
  6
Continuous
 62
     7
370
    25
100
AcDbCircle
 10
247.0071226568
 20
207.144298061
 30
0.0
 40
1.599999999999994
  0
CIRCLE
  5
D1
330
1B
100
AcDbEntity
 67
     1
  8
0
  6
Continuous
 62
     7
370
    25
100
AcDbCircle
 10
247.0071226568
 20
222.144298061
 30
0.0
 40
1.600000000000023
  0
CIRCLE
  5
D2
330
1B
100
AcDbEntity
 67
     1
  8
0
  6
Continuous
 62
     7
370
    25
100
AcDbCircle
 10
247.0071226568
 20
237.144298061
 30
0.0
 40
1.599999999999994
  0
CIRCLE
  5
D3
330
1B
100
AcDbEntity
 67
     1
  8
0
  6
Continuous
 62
     7
370
    25
100
AcDbCircle
 10
247.0071226568
 20
252.144298061
 30
0.0
 40
1.599999999999994
  0
ARC
  5
D4
330
1B
100
AcDbEntity
 67
     1
  8
0
  6
Continuous
 62
     7
370
    25
100
AcDbCircle
 10
290.0071226568
 20
257.144298061
 30
0.0
 40
10.00000000000006
100
AcDbArc
 50
0.0
 51
90.0
  0
ENDSEC
  0
SECTION
  2
OBJECTS
  0
DICTIONARY
  5
C
330
0
100
AcDbDictionary
281
     1
  3
ACAD_GROUP
350
D
  3
ACAD_LAYOUT
350
1A
  3
ACAD_MLINESTYLE
350
17
  3
ACAD_PLOTSETTINGS
350
19
  3
ACAD_PLOTSTYLENAME
350
E
  3
ACAD_SCALELIST
350
47
  0
DICTIONARY
  5
D
102
{ACAD_REACTORS
330
C
102
}
330
C
100
AcDbDictionary
281
     1
  0
DICTIONARY
  5
1A
102
{ACAD_REACTORS
330
C
102
}
330
C
100
AcDbDictionary
281
     1
  3
1_4in Aluminum
350
1E
  3
1_8in Aluminum
350
104
  3
1_8in Plastic
350
1D4
  3
3_16in Aluminum
350
26
  3
Model
350
22
  0
DICTIONARY
  5
17
102
{ACAD_REACTORS
330
C
102
}
330
C
100
AcDbDictionary
281
     1
  3
Standard
350
18
  0
DICTIONARY
  5
19
102
{ACAD_REACTORS
330
C
102
}
330
C
100
AcDbDictionary
281
     1
  0
ACDBDICTIONARYWDFLT
  5
E
102
{ACAD_REACTORS
330
C
102
}
330
C
100
AcDbDictionary
281
     1
  3
Normal
350
F
100
AcDbDictionaryWithDefault
340
F
  0
DICTIONARY
  5
47
102
{ACAD_REACTORS
330
C
102
}
330
C
100
AcDbDictionary
281
     1
  3
A0
350
48
  3
A1
350
49
  3
A2
350
4A
  3
A3
350
4B
  3
A4
350
4C
  3
A5
350
4D
  3
A6
350
4E
  3
A7
350
4F
  3
A8
350
50
  3
A9
350
51
  3
B0
350
52
  3
B1
350
53
  3
B2
350
54
  3
B3
350
55
  3
B4
350
56
  3
B5
350
57
  3
B6
350
58
  3
B7
350
59
  3
B8
350
5A
  3
B9
350
5B
  3
C0
350
5C
  3
C1
350
5D
  3
C2
350
5E
  3
C3
350
5F
  3
C4
350
60
  3
C5
350
61
  3
C6
350
62
  3
C7
350
63
  3
C8
350
64
  3
C9
350
65
  3
D0
350
66
  3
D1
350
67
  3
D2
350
68
  0
LAYOUT
  5
1E
102
{ACAD_REACTORS
330
1A
102
}
330
1A
100
AcDbPlotSettings
  1

  2
none_device
  4
ANSI_B_(17.00_x_11.00_Inches)
  6

 40
6.35
 41
19.05
 42
6.35000508
 43
19.0499873
 44
431.8
 45
279.4
 46
0.0
 47
0.0
 48
0.0
 49
0.0
140
0.0
141
0.0
142
1.0
143
1.0
 70
  4832
 72
     1
 73
     0
 74
     1
  7

 75
     0
147
1.0
148
0.0
149
0.0
100
AcDbLayout
  1
1_4in Aluminum
 70
     1
 71
     1
 10
0.0
 20
0.0
 11
431.8
 21
279.4
 12
0.0
 22
0.0
 32
0.0
 14
0.0
 24
0.0
 34
0.0
 15
431.8
 25
279.4
 35
0.0
146
0.0
 13
0.0
 23
0.0
 33
0.0
 16
1.0
 26
0.0
 36
0.0
 17
0.0
 27
1.0
 37
0.0
 76
     0
330
1B
  0
LAYOUT
  5
104
102
{ACAD_REACTORS
330
1A
102
}
330
1A
100
AcDbPlotSettings
  1

  2
none_device
  4
ANSI_B_(17.00_x_11.00_Inches)
  6

 40
6.35
 41
19.05
 42
6.35000508
 43
19.0499873
 44
431.8
 45
279.4
 46
0.0
 47
0.0
 48
0.0
 49
0.0
140
0.0
141
0.0
142
1.0
143
1.0
 70
  4832
 72
     1
 73
     0
 74
     1
  7

 75
    16
147
1.0
148
0.0
149
0.0
100
AcDbLayout
  1
1_8in Aluminum
 70
     1
 71
     3
 10
0.0
 20
0.0
 11
431.8
 21
279.4
 12
0.0
 22
0.0
 32
0.0
 14
0.0
 24
0.0
 34
0.0
 15
431.8
 25
279.4
 35
0.0
146
0.0
 13
0.0
 23
0.0
 33
0.0
 16
1.0
 26
0.0
 36
0.0
 17
0.0
 27
1.0
 37
0.0
 76
     0
330
103
  0
LAYOUT
  5
1D4
102
{ACAD_REACTORS
330
1A
102
}
330
1A
100
AcDbPlotSettings
  1

  2
none_device
  4
ANSI_B_(17.00_x_11.00_Inches)
  6

 40
6.35
 41
19.05
 42
6.35000508
 43
19.0499873
 44
431.8
 45
279.4
 46
0.0
 47
0.0
 48
0.0
 49
0.0
140
0.0
141
0.0
142
1.0
143
1.0
 70
  4832
 72
     1
 73
     0
 74
     1
  7

 75
    16
147
1.0
148
0.0
149
0.0
100
AcDbLayout
  1
1_8in Plastic
 70
     1
 71
     4
 10
0.0
 20
0.0
 11
431.8
 21
279.4
 12
0.0
 22
0.0
 32
0.0
 14
0.0
 24
0.0
 34
0.0
 15
431.8
 25
279.4
 35
0.0
146
0.0
 13
0.0
 23
0.0
 33
0.0
 16
1.0
 26
0.0
 36
0.0
 17
0.0
 27
1.0
 37
0.0
 76
     0
330
1D3
  0
LAYOUT
  5
26
102
{ACAD_REACTORS
330
1A
102
}
330
1A
100
AcDbPlotSettings
  1

  2
none_device
  4
ANSI_B_(17.00_x_11.00_Inches)
  6

 40
6.35
 41
19.05
 42
6.35000508
 43
19.0499873
 44
431.8
 45
279.4
 46
0.0
 47
0.0
 48
0.0
 49
0.0
140
0.0
141
0.0
142
1.0
143
1.0
 70
  4832
 72
     1
 73
     0
 74
     1
  7

 75
    16
147
1.0
148
0.0
149
0.0
100
AcDbLayout
  1
3_16in Aluminum
 70
     1
 71
     2
 10
0.0
 20
0.0
 11
431.8
 21
279.4
 12
0.0
 22
0.0
 32
0.0
 14
0.0
 24
0.0
 34
0.0
 15
431.8
 25
279.4
 35
0.0
146
0.0
 13
0.0
 23
0.0
 33
0.0
 16
1.0
 26
0.0
 36
0.0
 17
0.0
 27
1.0
 37
0.0
 76
     0
330
23
  0
LAYOUT
  5
22
102
{ACAD_REACTORS
330
1A
102
}
330
1A
100
AcDbPlotSettings
  1

  2
none_device
  4
Letter_(8.50_x_11.00_Inches)
  6

 40
6.35
 41
6.35
 42
6.35000508
 43
6.35000508
 44
215.9
 45
279.4
 46
0.0
 47
0.0
 48
0.0
 49
0.0
140
0.0
141
0.0
142
1.0
143
1.0
 70
  1712
 72
     1
 73
     0
 74
     0
  7

 75
     0
147
1.0
148
0.0
149
0.0
100
AcDbLayout
  1
Model
 70
     1
 71
     0
 10
0.0
 20
0.0
 11
431.8
 21
279.4
 12
0.0
 22
0.0
 32
0.0
 14
0.0
 24
0.0
 34
0.0
 15
431.8
 25
279.4
 35
0.0
146
0.0
 13
0.0
 23
0.0
 33
0.0
 16
1.0
 26
0.0
 36
0.0
 17
0.0
 27
1.0
 37
0.0
 76
     0
330
1F
331
29
  0
MLINESTYLE
  5
18
102
{ACAD_REACTORS
330
17
102
}
330
17
100
AcDbMlineStyle
  2
Standard
 70
     0
  3

 62
   256
 51
90.0
 52
90.0
 71
     2
 49
0.5
 62
   256
  6
BYLAYER
 49
-0.5
 62
   256
  6
BYLAYER
  0
ACDBPLACEHOLDER
  5
F
102
{ACAD_REACTORS
330
E
102
}
330
E
  0
SCALE
  5
48
102
{ACAD_REACTORS
330
47
102
}
330
47
100
AcDbScale
 70
     0
300
1:1
140
1.0
141
1.0
290
     1
  0
SCALE
  5
49
102
{ACAD_REACTORS
330
47
102
}
330
47
100
AcDbScale
 70
     0
300
1:2
140
1.0
141
2.0
290
     0
  0
SCALE
  5
4A
102
{ACAD_REACTORS
330
47
102
}
330
47
100
AcDbScale
 70
     0
300
1:4
140
1.0
141
4.0
290
     0
  0
SCALE
  5
4B
102
{ACAD_REACTORS
330
47
102
}
330
47
100
AcDbScale
 70
     0
300
1:5
140
1.0
141
5.0
290
     0
  0
SCALE
  5
4C
102
{ACAD_REACTORS
330
47
102
}
330
47
100
AcDbScale
 70
     0
300
1:8
140
1.0
141
8.0
290
     0
  0
SCALE
  5
4D
102
{ACAD_REACTORS
330
47
102
}
330
47
100
AcDbScale
 70
     0
300
1:10
140
1.0
141
10.0
290
     0
  0
SCALE
  5
4E
102
{ACAD_REACTORS
330
47
102
}
330
47
100
AcDbScale
 70
     0
300
1:16
140
1.0
141
16.0
290
     0
  0
SCALE
  5
4F
102
{ACAD_REACTORS
330
47
102
}
330
47
100
AcDbScale
 70
     0
300
1:20
140
1.0
141
20.0
290
     0
  0
SCALE
  5
50
102
{ACAD_REACTORS
330
47
102
}
330
47
100
AcDbScale
 70
     0
300
1:30
140
1.0
141
30.0
290
     0
  0
SCALE
  5
51
102
{ACAD_REACTORS
330
47
102
}
330
47
100
AcDbScale
 70
     0
300
1:40
140
1.0
141
40.0
290
     0
  0
SCALE
  5
52
102
{ACAD_REACTORS
330
47
102
}
330
47
100
AcDbScale
 70
     0
300
1:50
140
1.0
141
50.0
290
     0
  0
SCALE
  5
53
102
{ACAD_REACTORS
330
47
102
}
330
47
100
AcDbScale
 70
     0
300
1:100
140
1.0
141
100.0
290
     0
  0
SCALE
  5
54
102
{ACAD_REACTORS
330
47
102
}
330
47
100
AcDbScale
 70
     0
300
2:1
140
2.0
141
1.0
290
     0
  0
SCALE
  5
55
102
{ACAD_REACTORS
330
47
102
}
330
47
100
AcDbScale
 70
     0
300
4:1
140
4.0
141
1.0
290
     0
  0
SCALE
  5
56
102
{ACAD_REACTORS
330
47
102
}
330
47
100
AcDbScale
 70
     0
300
8:1
140
8.0
141
1.0
290
     0
  0
SCALE
  5
57
102
{ACAD_REACTORS
330
47
102
}
330
47
100
AcDbScale
 70
     0
300
10:1
140
10.0
141
1.0
290
     0
  0
SCALE
  5
58
102
{ACAD_REACTORS
330
47
102
}
330
47
100
AcDbScale
 70
     0
300
100:1
140
100.0
141
1.0
290
     0
  0
SCALE
  5
59
102
{ACAD_REACTORS
330
47
102
}
330
47
100
AcDbScale
 70
     0
300
1/128" = 1'-0"
140
0.0078125
141
12.0
290
     0
  0
SCALE
  5
5A
102
{ACAD_REACTORS
330
47
102
}
330
47
100
AcDbScale
 70
     0
300
1/64" = 1'-0"
140
0.015625
141
12.0
290
     0
  0
SCALE
  5
5B
102
{ACAD_REACTORS
330
47
102
}
330
47
100
AcDbScale
 70
     0
300
1/32" = 1'-0"
140
0.03125
141
12.0
290
     0
  0
SCALE
  5
5C
102
{ACAD_REACTORS
330
47
102
}
330
47
100
AcDbScale
 70
     0
300
1/16" = 1'-0"
140
0.0625
141
12.0
290
     0
  0
SCALE
  5
5D
102
{ACAD_REACTORS
330
47
102
}
330
47
100
AcDbScale
 70
     0
300
3/32" = 1'-0"
140
0.09375
141
12.0
290
     0
  0
SCALE
  5
5E
102
{ACAD_REACTORS
330
47
102
}
330
47
100
AcDbScale
 70
     0
300
1/8" = 1'-0"
140
0.125
141
12.0
290
     0
  0
SCALE
  5
5F
102
{ACAD_REACTORS
330
47
102
}
330
47
100
AcDbScale
 70
     0
300
3/16" = 1'-0"
140
0.1875
141
12.0
290
     0
  0
SCALE
  5
60
102
{ACAD_REACTORS
330
47
102
}
330
47
100
AcDbScale
 70
     0
300
1/4" = 1'-0"
140
0.25
141
12.0
290
     0
  0
SCALE
  5
61
102
{ACAD_REACTORS
330
47
102
}
330
47
100
AcDbScale
 70
     0
300
3/8" = 1'-0"
140
0.375
141
12.0
290
     0
  0
SCALE
  5
62
102
{ACAD_REACTORS
330
47
102
}
330
47
100
AcDbScale
 70
     0
300
1/2" = 1'-0"
140
0.5
141
12.0
290
     0
  0
SCALE
  5
63
102
{ACAD_REACTORS
330
47
102
}
330
47
100
AcDbScale
 70
     0
300
3/4" = 1'-0"
140
0.75
141
12.0
290
     0
  0
SCALE
  5
64
102
{ACAD_REACTORS
330
47
102
}
330
47
100
AcDbScale
 70
     0
300
1" = 1'-0"
140
1.0
141
12.0
290
     0
  0
SCALE
  5
65
102
{ACAD_REACTORS
330
47
102
}
330
47
100
AcDbScale
 70
     0
300
1-1/2" = 1'-0"
140
1.5
141
12.0
290
     0
  0
SCALE
  5
66
102
{ACAD_REACTORS
330
47
102
}
330
47
100
AcDbScale
 70
     0
300
3" = 1'-0"
140
3.0
141
12.0
290
     0
  0
SCALE
  5
67
102
{ACAD_REACTORS
330
47
102
}
330
47
100
AcDbScale
 70
     0
300
6" = 1'-0"
140
6.0
141
12.0
290
     0
  0
SCALE
  5
68
102
{ACAD_REACTORS
330
47
102
}
330
47
100
AcDbScale
 70
     0
300
1'-0" = 1'-0"
140
12.0
141
12.0
290
     0
  0
ENDSEC
  0
EOF
